<?xml version="1.0" encoding="utf-8"?>
<!-- Generator: Adobe Illustrator 19.0.0, SVG Export Plug-In . SVG Version: 6.00 Build 0)  -->
<svg version="1.0" id="Camada_1" xmlns="http://www.w3.org/2000/svg" xmlns:xlink="http://www.w3.org/1999/xlink" x="0px" y="0px"
	 viewBox="0 0 1920 48" enable-background="new 0 0 1920 48" xml:space="preserve">
<g id="XMLID_1_">
	<path id="XMLID_70_" fill="#FFFFFF" d="M1,29c0-9,0-18,0-27c640,0,1280,0,1920,0c0,9,0,18,0,27c-42.6,0-85.2,0-127.9,0
		c0,0.1,0,0.2,0,0.3c42.6,0.9,85.3,1.8,127.9,2.7c0,4.3,0,8.7,0,13c-26.1-0.7-52.3-1.2-78.4-2.1c-40.3-1.5-80.6-3.1-120.8-5
		c-9.3-0.4-18.5-2.8-27.8-2.9c-12.9-0.1-25.8,0.9-38.7,1.7c-18.8,1.2-37.5,3.2-56.3,3.9c-29.3,1.2-58.6,1.9-87.9,2.4
		c-29.2,0.5-58.3,2.5-87.5,0.9c-15.1-0.8-30.2-0.5-45.4-0.8c-88.1-1.6-176.3-3.5-264.4-4.8c-97.6-1.4-195.3-2.3-292.9-3.5
		c-3.3,0-6.7,0-10,0c0-0.5,0-1,0-1.5c12-0.8,24-2.4,35.9-2.4c77.2-0.4,154.3-0.5,231.5-0.8c66-0.3,131.9-0.8,197.9-1.3
		c5.5,0,10.9-0.6,14-0.8c-30.1-0.9-62.4-2.4-94.8-2.7c-50.5-0.4-101.1-0.5-151.6,0.2c-26.8,0.4-53.6,1.4-80.4,1.5
		c-33.3,0.2-66.6,2.2-99.9,2.6c-37.3,0.5-74.7-0.3-112,0c-35,0.4-70,2.4-104.9,2.2c-48.6-0.3-97.3-2.7-145.9-2.8
		c-49.8,0-99.6,1.7-149.4,2.7c-1.8,0-3.6,0-5.4,0c0-0.7,0-1.4,0-2.1c8.8-0.6,17.7-1.5,26.5-1.9c8.8-0.3,17.6-0.1,26.3-0.1
		c0-0.5,0-1,0-1.5c-22.3-7.2-45-0.4-67.4-2.6c0,0.4,0,0.9,0,1.3c11.9,0,23.9,0,35.8,0c-6.8,0.6-13.5,1.9-20.4,1.9
		c-22.8-0.1-45.6,0.8-68.5,1C266,27.8,253.9,27,241.7,27c-30.1-0.2-60.3-0.1-90.4-0.2c-7,0-14.1-1.1-21-0.1c-6,0.9-11.2-2.4-17-0.7
		c0-0.4,0-0.9,0.1-1.3c11.9,0,23.9,0,35.8,0c0-0.4,0-0.8,0-1.3c-10.1,0-20.3,0.3-30.4-0.1c-12.5-0.4-25.1-2-37,3.2
		c17.5,1.3,35.4,0.3,52.8,3.6c0,0.5-0.1,1-0.1,1.4C89.8,30.8,45.4,29.9,1,29z M1741.4,18.7c28.4,0.6,56.5,6.3,85,2.8
		c28.3,4.6,56.8,1.3,85.3,2.2c-6.4-1.3-12.8-2.2-19.2-2.6c-30.9-1.8-61.9-3.5-92.8-5c-26.4-1.3-52.9-2.7-79.3-3
		c-17.3-0.2-34.4-2.8-51.8-1.6c-32,2.2-64.2,2.8-96.3,4.3c-33.8,1.6-67.5,3.4-101.3,5.3c-6.9,0.4-13.8,1.3-20.7,2c3,1,6,1,9,1
		c10.2-0.1,20.3-0.1,30.5-0.2c10.3-0.1,20.7,0.1,31-0.5c9.9-0.6,19.8-0.2,29.6-0.6c18.4-0.6,36.8-2.3,55.2-3.6
		c5.1-0.4,10.1-0.9,15.2-1.3c0,0.2,0.1,0.5,0.1,0.7c-0.6,0.3-1.3,0.6-1.9,0.9c0-0.2,0-0.4,0.1-0.6c41.4,0,82.9,0,124.3,0
		c0,0.2,0,0.3,0,0.5C1742.6,19.1,1742,18.9,1741.4,18.7z M154.4,21.3c-0.2,0.6-0.4,1.1-0.6,1.7c1.9,0.8,3.9,2,5.9,2.2
		c6.5,0.5,13,0.7,19.5,0.9c1.1,0,3.1,0.1,3.3-0.3c1.5-4.1,4.7-2.1,7.1-2c12.8,0.4,25.6,1.2,38.4,1.4c12.1,0.2,24.3-0.5,36.4-0.1
		c11.8,0.4,23.4-3.4,35.5,0.7c6.4,2.1,14.2,0,21.3-0.6c1.7-0.1,3.2-1.7,4.8-2.6c-0.3-0.4-0.5-0.8-0.8-1.2
		C268.4,21.3,211.4,21.3,154.4,21.3z M1363.2,30c0,0.8,0.1,1.6,0.1,2.3c68.5-0.8,137-1.7,205.6-2.5c0-0.7,0-1.4,0-2.2
		C1500.3,28.4,1431.7,29.2,1363.2,30z M205.5,9.3c0.1,0.5,0.1,0.9,0.2,1.4c22.9,0,45.8,0,68.7,0c0.1-0.5,0.1-0.9,0.2-1.4
		c-11.5-1.5-23-4.1-34.5-4.1C228.5,5.2,217,7.9,205.5,9.3z M1728.5,23.7c-31.7-4.5-63.3-4.5-95,0
		C1665.2,23.7,1696.9,23.7,1728.5,23.7z M270.1,18.8c0-0.4,0-0.7,0-1.1c-20.1,0-40.1,0-60.2,0c0,0.4,0,0.7,0,1.1
		C230,18.8,250,18.8,270.1,18.8z M1341.6,21.9c0,0.7,0.1,1.4,0.1,2.1c23-1,45.9-2,68.9-2.9c0-0.4,0-0.8,0-1.3
		C1387.6,20.5,1364.6,21.2,1341.6,21.9z"/>
	<path id="XMLID_60_" fill="#FFFFFF" d="M1921,49c-4.3,0-8.6-0.1-12.9-0.1c-50.2-0.9-100.3-1.5-150.4-2.7
		c-23.5-0.5-46.9-2.4-70.4-2.9c-14-0.3-27.9,1.1-41.9,1.5c-37.8,1.2-75.6,2.5-113.4,3.2c-29.5,0.5-58.9,0.1-88.4-0.8
		c21,0,42.1,0.6,63.1-0.1c49.6-1.6,99.2-3.4,148.7-6.1c28.8-1.6,57.2,1,85.8,2.4c17.3,0.9,34.6,2,51.9,2.4c42,1,84,1.7,125.9,2.5
		c0.7,0,1.3-0.2,2-0.3C1921,48.3,1921,48.7,1921,49z"/>
	<path id="XMLID_58_" fill="#FFFFFF" d="M1,39c10.1-0.7,20.2-1.2,30.3-2c9.2-0.7,18.4-1.7,27.5-2.6c0.1,0.7,0.1,1.4,0.2,2.1
		C39.7,37.7,20.3,38.8,1,40C1,39.7,1,39.3,1,39z"/>
	<path id="XMLID_50_" fill="#FFFFFF" d="M755.7,35c-49.5,1.1-99,2.2-148.5,3.3c0-0.4,0-0.9,0-1.3c49.5-1.2,99-2.4,148.5-3.6
		C755.6,33.9,755.6,34.4,755.7,35z"/>
	<path id="XMLID_49_" fill="#FFFFFF" d="M516.1,40.6c-31.7-1.1-63.4-2.3-95.1-3.4c0-0.8,0.1-1.7,0.1-2.5c8.5,0.6,16.9,1.2,25.4,2
		c4.3,0.4,8.6,1.4,12.9,1.4c17.1,0.2,34.3,0.1,51.4,0.1c1.8,0,3.6,0,5.4,0C516.2,38.9,516.1,39.8,516.1,40.6z"/>
	<path id="XMLID_48_" fill="#FFFFFF" d="M565.2,38.1c8.9-0.4,17.7-0.8,26.6-1.3c0,0.5,0.1,1,0.1,1.5c-8.9,0-17.8,0-26.7,0
		C565.2,38.2,565.2,38.1,565.2,38.1z"/>
	<path id="XMLID_47_" fill="#FFFFFF" d="M633.6,42.3c-6,0-12,0-18,0c0-0.1,0-0.3-0.1-0.4c5.9-0.3,11.9-0.5,17.8-0.8
		C633.4,41.5,633.5,41.9,633.6,42.3z"/>
	<path id="XMLID_44_" fill="#FFFFFF" d="M547.6,38c-5.5,0.3-11.1,0.6-16.6,0.9c0-0.3,0-0.6-0.1-1c5.5-0.3,11-0.6,16.5-0.9
		C547.4,37.4,547.5,37.7,547.6,38z"/>
</g>
</svg>
