<?xml version="1.0" encoding="utf-8"?>
<!-- Generator: Adobe Illustrator 19.0.0, SVG Export Plug-In . SVG Version: 6.00 Build 0)  -->
<svg version="1.0" id="Camada_1" xmlns="http://www.w3.org/2000/svg" xmlns:xlink="http://www.w3.org/1999/xlink" x="0px" y="0px"
	 viewBox="0 0 1920 48" enable-background="new 0 0 1920 48" xml:space="preserve">
<g id="XMLID_1_">
	<path id="XMLID_70_" fill="#FFFFFF" d="M1920,20.5c0,9,0,18,0,27c-640,0-1280,0-1920,0c0-9,0-18,0-27c42.6,0,85.2,0,127.9,0
		c0-0.1,0-0.2,0-0.3C85.3,19.3,42.6,18.4,0,17.5c0-4.3,0-8.7,0-13c26.1,0.7,52.3,1.2,78.4,2.1c40.3,1.5,80.6,3.1,120.8,5
		c9.3,0.4,18.5,2.8,27.8,2.9c12.9,0.1,25.8-0.9,38.7-1.7c18.8-1.2,37.5-3.2,56.3-3.9c29.3-1.2,58.6-1.9,87.9-2.4
		C439.1,6,468.2,4,497.4,5.6c15.1,0.8,30.2,0.5,45.4,0.8c88.1,1.6,176.3,3.5,264.4,4.8c97.6,1.4,195.3,2.3,292.9,3.5
		c3.3,0,6.7,0,10,0c0,0.5,0,1,0,1.5c-12,0.8-24,2.4-35.9,2.4C997,19,919.9,19.1,842.7,19.4c-66,0.3-131.9,0.8-197.9,1.3
		c-5.5,0-10.9,0.6-14,0.8c30.1,0.9,62.4,2.4,94.8,2.7c50.5,0.4,101.1,0.5,151.6-0.2c26.8-0.4,53.6-1.4,80.4-1.5
		c33.3-0.2,66.6-2.2,99.9-2.6c37.3-0.5,74.7,0.3,112,0c35-0.4,70-2.4,104.9-2.2c48.6,0.3,97.3,2.7,145.9,2.8
		c49.8,0,99.6-1.7,149.4-2.7c1.8,0,3.6,0,5.4,0c0,0.7,0,1.4,0,2.1c-8.8,0.6-17.7,1.5-26.5,1.9c-8.8,0.3-17.6,0.1-26.3,0.1
		c0,0.5,0,1,0,1.5c22.3,7.2,45,0.4,67.4,2.6c0-0.4,0-0.9,0-1.3c-11.9,0-23.9,0-35.8,0c6.8-0.6,13.5-1.9,20.4-1.9
		c22.8,0.1,45.6-0.8,68.5-1c12.2-0.1,24.3,0.7,36.5,0.7c30.1,0.2,60.3,0.1,90.4,0.2c7,0,14.1,1.1,21,0.1c6-0.9,11.2,2.4,17,0.7
		c0,0.4,0,0.9-0.1,1.3c-11.9,0-23.9,0-35.8,0c0,0.4,0,0.8,0,1.3c10.1,0,20.3-0.3,30.4,0.1c12.5,0.4,25.1,2,37-3.2
		c-17.5-1.3-35.4-0.3-52.8-3.6c0-0.5,0.1-1,0.1-1.4C1831.2,18.7,1875.6,19.6,1920,20.5z M179.6,30.8c-28.4-0.6-56.5-6.3-85-2.8
		c-28.3-4.6-56.8-1.3-85.3-2.2c6.4,1.3,12.8,2.2,19.2,2.6c30.9,1.8,61.9,3.5,92.8,5c26.4,1.3,52.9,2.7,79.3,3
		c17.3,0.2,34.4,2.8,51.8,1.6c32-2.2,64.2-2.8,96.3-4.3c33.8-1.6,67.5-3.4,101.3-5.3c6.9-0.4,13.8-1.3,20.7-2c-3-1-6-1-9-1
		c-10.2,0.1-20.3,0.1-30.5,0.2c-10.3,0.1-20.7-0.1-31,0.5c-9.9,0.6-19.8,0.2-29.6,0.6c-18.4,0.6-36.8,2.3-55.2,3.6
		c-5.1,0.4-10.1,0.9-15.2,1.3c0-0.2-0.1-0.5-0.1-0.7c0.6-0.3,1.3-0.6,1.9-0.9c0,0.2,0,0.4-0.1,0.6c-41.4,0-82.9,0-124.3,0
		c0-0.2,0-0.3,0-0.5C178.4,30.4,179,30.6,179.6,30.8z M1766.6,28.2c0.2-0.6,0.4-1.1,0.6-1.7c-1.9-0.8-3.9-2-5.9-2.2
		c-6.5-0.5-13-0.7-19.5-0.9c-1.1,0-3.1-0.1-3.3,0.3c-1.5,4.1-4.7,2.1-7.1,2c-12.8-0.4-25.6-1.2-38.4-1.4
		c-12.1-0.2-24.3,0.5-36.4,0.1c-11.8-0.4-23.4,3.4-35.5-0.7c-6.4-2.1-14.2,0-21.3,0.6c-1.7,0.1-3.2,1.7-4.8,2.6
		c0.3,0.4,0.5,0.8,0.8,1.2C1652.6,28.2,1709.6,28.2,1766.6,28.2z M557.8,19.5c0-0.8-0.1-1.6-0.1-2.3c-68.5,0.8-137,1.7-205.6,2.5
		c0,0.7,0,1.4,0,2.2C420.7,21.1,489.3,20.3,557.8,19.5z M1715.5,40.2c-0.1-0.5-0.1-0.9-0.2-1.4c-22.9,0-45.8,0-68.7,0
		c-0.1,0.5-0.1,0.9-0.2,1.4c11.5,1.5,23,4.1,34.5,4.1C1692.5,44.3,1704,41.6,1715.5,40.2z M192.5,25.8c31.7,4.5,63.3,4.5,95,0
		C255.8,25.8,224.1,25.8,192.5,25.8z M1650.9,30.7c0,0.4,0,0.7,0,1.1c20.1,0,40.1,0,60.2,0c0-0.4,0-0.7,0-1.1
		C1691,30.7,1671,30.7,1650.9,30.7z M579.4,27.6c0-0.7-0.1-1.4-0.1-2.1c-23,1-45.9,2-68.9,2.9c0,0.4,0,0.8,0,1.3
		C533.4,29,556.4,28.3,579.4,27.6z"/>
	<path id="XMLID_60_" fill="#FFFFFF" d="M0,0.5c4.3,0,8.6,0.1,12.9,0.1c50.2,0.9,100.3,1.5,150.4,2.7c23.5,0.5,46.9,2.4,70.4,2.9
		c14,0.3,27.9-1.1,41.9-1.5c37.8-1.2,75.6-2.5,113.4-3.2c29.5-0.5,58.9-0.1,88.4,0.8c-21,0-42.1-0.6-63.1,0.1
		C364.7,4,315.1,5.8,265.6,8.5c-28.8,1.6-57.2-1-85.8-2.4c-17.3-0.9-34.6-2-51.9-2.4C85.9,2.7,43.9,2,2,1.2c-0.7,0-1.3,0.2-2,0.3
		C0,1.2,0,0.8,0,0.5z"/>
	<path id="XMLID_58_" fill="#FFFFFF" d="M1920,10.5c-10.1,0.7-20.2,1.2-30.3,2c-9.2,0.7-18.4,1.7-27.5,2.6c-0.1-0.7-0.1-1.4-0.2-2.1
		c19.3-1.2,38.7-2.3,58-3.5C1920,9.8,1920,10.2,1920,10.5z"/>
	<path id="XMLID_50_" fill="#FFFFFF" d="M1165.3,14.5c49.5-1.1,99-2.2,148.5-3.3c0,0.4,0,0.9,0,1.3c-49.5,1.2-99,2.4-148.5,3.6
		C1165.4,15.6,1165.4,15.1,1165.3,14.5z"/>
	<path id="XMLID_49_" fill="#FFFFFF" d="M1404.9,8.9c31.7,1.1,63.4,2.3,95.1,3.4c0,0.8-0.1,1.7-0.1,2.5c-8.5-0.6-16.9-1.2-25.4-2
		c-4.3-0.4-8.6-1.4-12.9-1.4c-17.1-0.2-34.3-0.1-51.4-0.1c-1.8,0-3.6,0-5.4,0C1404.8,10.6,1404.9,9.7,1404.9,8.9z"/>
	<path id="XMLID_48_" fill="#FFFFFF" d="M1355.8,11.4c-8.9,0.4-17.7,0.8-26.6,1.3c0-0.5-0.1-1-0.1-1.5c8.9,0,17.8,0,26.7,0
		C1355.8,11.3,1355.8,11.4,1355.8,11.4z"/>
	<path id="XMLID_47_" fill="#FFFFFF" d="M1287.4,7.2c6,0,12,0,18,0c0,0.1,0,0.3,0.1,0.4c-5.9,0.3-11.9,0.5-17.8,0.8
		C1287.6,8,1287.5,7.6,1287.4,7.2z"/>
	<path id="XMLID_44_" fill="#FFFFFF" d="M1373.4,11.5c5.5-0.3,11.1-0.6,16.6-0.9c0,0.3,0,0.6,0.1,1c-5.5,0.3-11,0.6-16.5,0.9
		C1373.6,12.1,1373.5,11.8,1373.4,11.5z"/>
</g>
</svg>
