<?xml version="1.0" encoding="utf-8"?>
<!-- Generator: Adobe Illustrator 19.0.0, SVG Export Plug-In . SVG Version: 6.00 Build 0)  -->
<svg version="1.0" id="Camada_1" xmlns="http://www.w3.org/2000/svg" xmlns:xlink="http://www.w3.org/1999/xlink" x="0px" y="0px"
	 viewBox="-857 -9 205 67" enable-background="new -857 -9 205 67" xml:space="preserve">
<g>
	<defs>
		<rect id="SVGID_1_" x="-857" y="-9" width="205" height="67"/>
	</defs>
	<clipPath id="SVGID_2_">
		<use xlink:href="#SVGID_1_"  overflow="visible"/>
	</clipPath>
	<g clip-path="url(#SVGID_2_)">
		<path fill="#ED7C00" d="M-840.6,43.5c-1.6-2.4-3.1-5.1-4.1-7.9c-2.1-5.6-2.3-11.4,0.9-16.7c1.5-2.4,3.8-4.3,5.2-6.7
			c1.4-2.3,3.2-3.4,5.6-3.6c2.3-0.2,4.6-0.2,6.9-0.4c7.7-0.5,13.8,2.9,18.3,9.5c4.9,7.3,6,15.6,4.1,24.2c-1.2,5.2-3.8,9.7-9.1,11.5
			c-2.4,0.8-4.8,1.7-7,3c-2.6,1.5-5.3,1.8-8.1,1.4c-1.9-0.3-3.9-0.4-5.7-1c-3.3-1-6.4-2.3-9.6-3.4c0.1-0.3,0.2-0.5,0.3-0.8
			c0.5,0.2,1,0.4,1.5,0.5c1.8,0.4,3.6,1.2,5.4,1.1c3.8-0.1,7.6-0.4,11.3-1c3.5-0.5,6.7-2.3,9.2-5.1c4.4-4.9,6.1-10.8,5.4-17.7
			c-0.7-7.5-5.9-14.7-14.5-14.9c-7.4-0.2-12.9,5.7-12.2,13.4c0.1,0.8,0.2,1.6,0.1,2.3c-0.3,3.2,0.7,5.6,3.3,6.9
			c1.1,0.5,3.5,0.7,3.6,0.5c0.5-2,2.1-1.6,3.3-2.1c1.4-0.6,2.6-1.4,2.6-3.3c0.1-1.8-0.4-3.1-2.1-3.8c-2.3-1-2.6-2.2-2-4.9
			c0.1-0.2,0.2-0.5,0.1-0.6c-1-1-1.1-2.1,0.2-2.8c1-0.6,2.1-1.2,3.2-1.1c3.2,0.1,5.5,1.9,7.2,4.7c2.7,4.3,2.4,8.7,0.8,13.4
			c-1.1,3.4-5.5,7.2-8.9,7c-2.6-0.2-5.3-0.4-7.9-1c-5.7-1.2-9.6-7.2-9-13.5c0.1-1.1,0.1-2.1,0.2-3.7c-2.2,1.4-2.2,3.4-2,5.1
			c1,9.5,6.4,14,15,14.5C-832.7,48.5-838.1,47.3-840.6,43.5z M-840.6,23.1c5.7-12.3,22.9-14,30.5-2.4c2.6,3.9,5.1,8.2,4.1,13.6
			c-0.1,0.5,0.1,1,0.2,1.5c0.2,0.1,0.5,0.1,0.7,0.2c0.3-1,0.7-1.9,0.7-2.9c-0.1-4.2-1-8.1-3.3-11.6c-2.9-4.4-6.2-8.3-11.1-9.8
			c-6.6-1.9-12.7-0.6-18.1,4.1c-1.8,1.6-3.3,3.8-4.8,5.9c-0.5,0.7-0.6,1.7-0.8,2.6c0.2,0.1,0.4,0.3,0.7,0.4
			C-841.5,24.1-840.9,23.7-840.6,23.1z"/>
		<path fill="#D66446" d="M-825.1,5.8c8.2,0.7,14.8,4.2,19.4,11.8c4.5,7.3,5,15.4,4.1,23.8c3.6-7.7,2.9-15.3-0.7-22.5
			C-807,9.7-816.4,4.4-825.1,5.8z"/>
		<path fill="#ED7C00" d="M-809.3,1c1-0.3,1.9-0.2,2.3-0.6c2.3-3,4.4-6.1,6.4-9.4c-4.4,0.8-7.9,3.4-11.1,6.7
			c0.5,0.7,0.9,1.4,1.7,2.6c-3.4-1-3.2,1.7-3.7,3.4c-0.4,1.3,0.2,2.6,1.7,3c0.7,0.2,2,0.4,2.2,0.1C-808.9,5-807.3,3.3-809.3,1z"/>
		<path fill="#D66446" d="M-793.9,14.5c-1.5,1.3-2.9,2.3-4.3,3.5c-1.5,1.4-1.1,2.9,0,4.2c1.2,1.5,2.2,0.3,3.1-0.5
			c0.1-0.1,0.2-0.2,0.3-0.3C-791.8,19-791.8,19-793.9,14.5z"/>
		<path fill="#ED7C00" d="M-852,5.1c1.6,2.2,3,4.5,4.7,6.6c0.5,0.6,1.7,0.7,2.5,0.7c0.5,0,1.2-0.6,1.4-1.2c0.1-0.5-0.2-1.4-0.7-1.7
			c-2.5-1.7-5-3.3-7.5-4.9C-851.9,4.4-852.2,4.8-852,5.1z"/>
		<path fill="#D66446" d="M-827.9,2.8c-0.3-1.2-0.6-2.1-0.6-3c-0.1-1.9-1-2.2-2.4-1.7c-1,0.4-2.9,0.1-2.4,2.4c0.5,2.1,2,3.3,3.7,3
			C-829.1,3.3-828.6,3-827.9,2.8z"/>
		<path fill="#D66446" d="M-783.5,15.7c-1.2-0.4-2.4-0.8-3.7-1.3c-0.3,0.8-0.5,1.3-0.8,2.1c-1-1.6-1.8-3.2-3.9-2
			c0.4,1.4,0.8,2.7,1.2,3.9c2.5-0.7,4.8-1.4,7.1-2C-783.6,16.2-783.6,15.9-783.5,15.7z"/>
		<path fill="#D66446" d="M-834.1-2.5c1.8-0.3,2.9-0.5,4.5-0.8c-0.9-2-1.6-3.8-2.4-5.6c-0.3,0-0.7,0.1-1,0.1
			C-833.3-6.8-833.7-4.8-834.1-2.5z"/>
		<path fill="#D66446" d="M-847.6,32.2c-0.5,3.4,0.1,6.5,2.9,9.3C-845.7,38-846.7,35.1-847.6,32.2z"/>
		<path fill="#D66446" d="M-856.9,23.2c1.7,1,3.4,2.1,5.2,2.9c0.5,0.2,1.4-0.1,2-0.4c0.3-0.2,0.7-0.9,0.6-1.3c-0.1-0.4-0.6-0.9-1-1
			c-2.2-0.3-4.4-0.5-6.6-0.8C-857,22.7-857.1,23.1-856.9,23.2z"/>
		<path fill="#FFFFFF" d="M-778.7,4.2c0.5-0.6,0.9-0.6,1.7-0.6h0.5c0.7,0,1.3,0,1.3,0.8c0,0.8-0.3,1.6,0.9,16v0.1
			c0,0.4,0,0.7,0.7,0.9c1,0.1,1,0.2,1.8,0.2l0.3-1.8v-0.5c0-3.7,0.5-11.4,0.6-14.8c0.3-0.8,1.2-0.9,2-0.9c0.7,0,1.4,0,1.8,0.6
			l-1.6,20.4c-0.1,0.3-0.3,0.6-0.7,0.6h-6.7c-0.1,0-0.4-0.1-0.4-0.2l-2.2-19.3V4.2z"/>
		<path fill="#FFFFFF" d="M-765.3,17.8c0-0.2,0-3,0-4.1c0-1,0-3.8,0-3.9c0-0.4,0.1-3.3,0.2-3.6V5.3c0-1.4,0-2.4,2-2.4
			c0.1,0,0.8,0,0.9,0c0.2,0.1,0.3,0.3,0.4,0.5c-0.1,5.2,0,10.4,0.5,15.6c0.3,3.5-0.1,3.3-0.1,5.4h-3.4c-0.1,0-0.4-0.6-0.4-0.6
			L-765.3,17.8z"/>
		<path fill="#FFFFFF" d="M-759.2,24.9v-0.6c0-3,0.3-6,0.3-9.1c0-2.7-0.3-5.3-0.3-8c0-0.4,0-1.9,0-2.3c0.2-0.7,0.8-0.9,1.6-0.9
			c1.2,0,1.6,1.1,1.6,2v14.2c0,1,0.4,1.3,1.4,1.3c2.1,0,4.2-0.6,6.2-0.6c0.5,0,1.1,0.3,1.1,0.9v3.3c0,0.3-0.7,0.6-1,0.6h-0.2
			c-1.5,0-8.3-0.2-9.7-0.2C-758.7,25.3-759,25.1-759.2,24.9z"/>
		<path fill="#FFFFFF" d="M-741.1,3.6h0.3c1.2,0,2.8,0.3,7.2,0.4c0.2,0.1,0.3,0.3,0.4,0.5c0,0.2,0,1.5,0,1.8c0,0.4,0,1.7,0,1.8
			c-0.3,4.9-0.7,11.6-0.8,16.5l-0.4,0.4h-2.3c-0.7,0-0.8-0.8-0.8-1.2c0-2.4,0.2-4.8,0.2-7.2h-0.5c-1.7,0-4.4,0.1-5,0.1
			c-0.3,1.7-0.6,3.4-0.8,5.1c0,0.3-0.1,2.3-0.2,2.5c-0.1,0.5-0.4,0.9-1,0.9c-0.3,0-0.7-0.2-0.8-0.4v-0.7c0-6.3,0.3-12.6,0.2-18.9
			c-0.1-0.8,0.3-1.6,1.1-1.6C-743.7,3.7-741.5,3.6-741.1,3.6z M-737.4,7.1l-3.7,0.2l-0.1,0.6c-0.1,1.8-0.4,3.6-0.8,5.3
			c1.2-0.1,3.4-0.2,4.6-0.3v-0.2C-737.4,10.8-737.4,9-737.4,7.1z"/>
		<path fill="#FFFFFF" d="M-778.1,48.7c0-2.3-0.7-4.6-0.7-7v-0.6l0.4-9.5c0.1-0.9,0-2.9,1-3.6c3.9-0.2,6.5-0.2,10.2-0.2
			c0.7,0,2.3,0,2.4,0l0.4,0.4c0,0.1,0,0.7,0,1c0,0.3,0,1.3,0,1.4c-0.2,2.5-0.8,8.4-0.8,8.5l-0.7,0.6l-8.5,0.6
			c-0.3,2.8-0.5,5.8-0.7,8.9c0,0.1-0.4,0.7-0.6,0.7h-2l-0.4-0.4C-778.1,49.1-778.1,48.9-778.1,48.7z M-773,36.4
			c1.2,0,2.3-0.1,3.6-0.2c0.4-0.2,0.4-0.6,0.4-0.9v-0.5c0-0.5-0.2-2.6-0.2-3.1c-0.1-0.6-0.7-0.6-1.2-0.6c-1.2,0-2.3,0.1-3.6,0.2
			c-0.6,0.1-0.4,2.1-0.4,2.4C-774.5,34.9-774.7,36.4-773,36.4z"/>
		<path fill="#FFFFFF" d="M-762.4,42.4c0-0.2,0-3,0-4.1c0-1,0-3.8,0-3.9c0-0.4,0.1-3.3,0.2-3.6v-0.9c0-1.4,0-2.4,2-2.4
			c0.1,0,0.8,0,0.9,0c0.2,0.1,0.3,0.3,0.4,0.5c-0.1,5.2,0,10.4,0.5,15.6c0.3,3.5-0.1,3.3-0.1,5.4h-3.4c-0.1,0-0.4-0.6-0.4-0.6
			L-762.4,42.4z"/>
		<path fill="#FFFFFF" d="M-756.4,47.2l0.2-17.8c0-0.2,0.1-1.3,0.4-1.6c3.3-0.4,6.9-0.4,10.3-0.4c0.3,0,0.9,0,0.9,0l0.4,0.4v2.5
			l-0.4,0.4c-2.4-0.1-3.7-0.1-6,0.2c-2.4,0.2-2.4,1.4-2.3,3.1V45c0.2,0.2,0.8,0.6,1,0.6h5.8c0.8,0,1.5,0.6,1.5,1.3
			c0,0.6,0.2,1.7-0.6,1.9l-6.4,0.2h-4.2c-0.5-0.4-0.7-0.6-0.7-1.2V47.2z"/>
		<path fill="#FFFFFF" d="M-742.2,42.4c0-0.2,0-3,0-4.1c0-1,0-3.8,0-3.9c0-0.4,0.1-3.3,0.2-3.6v-0.9c0-1.4,0-2.4,2-2.4
			c0.1,0,0.8,0,0.9,0c0.2,0.1,0.3,0.3,0.4,0.5c-0.1,5.2,0,10.4,0.5,15.6c0.3,3.5-0.1,3.3-0.1,5.4h-3.4c-0.1,0-0.4-0.6-0.4-0.6
			L-742.2,42.4z"/>
		<path fill="#FFFFFF" d="M-736.2,48.8c0-6.3,0.3-12.6,0.2-18.9c0.1-0.6,0.6-1.1,1.2-1.3c0.9-0.1,4.9-0.2,5.8-0.2h0.6
			c0.6,0,3.5,0.2,4.2,0.2c0.2,0.1,0.3,0.3,0.4,0.5c0,0.2,0,1.5,0,1.8c0,0.4,0,1.7,0,1.8c0,0.6-0.4,5.4-0.4,6c0,0.2,0,2.1,0,2.3
			c0,0.1-0.1,0.6-0.2,0.7c-0.1,2-0.3,5.2-0.2,7.5l-0.4,0.4h-2.3c-0.7,0-0.8-0.8-0.8-1.2c0-2.5,0.2-5,0.2-7.5c0-0.7,0-2.6,0-2.8
			c0-0.8-0.1-4.1-0.2-4.7c-0.1-1.3-1-1.5-2.4-1.5c-0.2,0-0.8,0.1-0.8,0.1l-0.4,0.4c-0.4,4.7-1.7,9.3-2.3,14c0,0.3-0.1,2.3-0.2,2.5
			c-0.1,0.5-0.4,0.9-1,0.9c-0.3,0-0.6-0.2-0.8-0.4V48.8z"/>
		<path fill="#FFFFFF" d="M-721.8,48.3c0-0.6,0.1-1,0.3-1.7c0.1-1.9,0.1-9.1,0.2-11.5v-0.2c0-0.4,0-3.1,0-3.5c0-0.8-0.3-2.8,1-3.3
			c1,0,6-0.2,7-0.2c0.1,0,1.7,0,2.3,0c1,0,3.6-0.4,3.6,1.1c0,0.6-0.1,2.5-1.2,2.5h-6.8c-0.5,0-1,0.4-1.2,0.7c0,0.4-0.2,2.3-0.2,2.7
			c-0.1,3.2,0,5.1,0,8.3v2.2c0,0.3,0.4,0.5,0.8,0.5l3.9-0.4c0,0,0.3-0.1,0.4-0.2l0.2-0.2v-5.1c0-0.2-0.3-0.5-0.4-0.5h-0.1
			c-1.1,0-3,0.2-3-1.1c0-2.2,2.2-2.2,4.2-2.2h0.7c0.3,0,0.5,0,0.7,0h0.6c1,0,1.3,0.6,1.3,1.4c0,1.3-0.3,2.6-0.3,3.9
			c0,2.4,0.5,4.8,0.5,7.2c0,0.7-0.5,0.8-1.2,0.8c-4.1,0-8.4-0.2-12.5-0.4C-721.7,49.2-721.8,48.9-721.8,48.3z"/>
		<path fill="#FFFFFF" d="M-705.6,49c0-0.3,0-1.5,0-1.7c0-0.5,0-1.7,0-1.7c0-0.3,0.2-2.8,0.2-3.1c0-1,0-9.3,0-10.3v-0.5
			c0-1.2-0.1-3.2,1.6-3.2c0.4,0,1.2,0.1,1.2,0.6l0.4,1.8v13.6c0,1,0,1.3,1,1.3c0.5,0,2.1,0,2.1-0.7v-14c0-1.3,0.3-2.3,1.9-2.3
			c1.3,0,1.5,0.3,2,1.4c0,0.7,0,3.9,0,4.6c0,4.9-0.2,9.9-0.5,14.9c-0.3,0.4-0.7,0.4-1.2,0.4h-0.8c-1,0-5.8-0.1-6.8-0.2
			C-704.9,49.7-705.3,49.3-705.6,49z"/>
		<path fill="#FFFFFF" d="M-689.1,28.2h0.3c1.2,0,2.8,0.3,7.2,0.4c0.2,0.1,0.3,0.3,0.4,0.5c0,0.2,0,1.5,0,1.8c0,0.4,0,1.7,0,1.8
			c-0.3,4.9-0.7,11.6-0.8,16.5l-0.4,0.4h-2.3c-0.6,0-0.8-0.8-0.8-1.2c0-2.4,0.2-4.8,0.2-7.2h-0.5c-1.7,0-4.4,0.1-5,0.1
			c-0.3,1.7-0.6,3.4-0.8,5.1c0,0.3-0.1,2.3-0.2,2.5c-0.1,0.5-0.4,0.9-1,0.9c-0.3,0-0.7-0.2-0.9-0.4v-0.7c0-6.3,0.3-12.6,0.2-18.9
			c-0.1-0.8,0.3-1.6,1.1-1.6C-691.8,28.3-689.6,28.3-689.1,28.2z M-685.4,31.7l-3.7,0.2l-0.1,0.6c-0.1,1.8-0.4,3.6-0.8,5.3
			c1.2-0.1,3.4-0.2,4.6-0.3v-0.2C-685.4,35.4-685.5,33.6-685.4,31.7z"/>
		<path fill="#FFFFFF" d="M-666.1,47.2c-0.1,2.2-0.6,2.4-3.2,2.4c-0.5,0-5.2,0-6.6,0l-0.9,0c-1,0-2.1-0.2-2.4-1.2l0-6.7l0.1-1.6
			c0.1-3.5-0.1-8.2,0.3-11.5c0-0.2,0.8-0.4,1.1-0.4l11.7,0.4l-0.1,8.8l-1.8,1.2v0.4l1.8,0.9L-666.1,47.2z M-670.2,32.9
			c0-1-0.4-1.5-1.5-1.6c-0.9,0-4.4-0.4-4.4,1.1v0.1c0.1,1.3,0.3,4.1,0.3,4.1c0.2,0.2,0.7,0.2,0.9,0.2c1.2,0,2.2,0,3.5-0.1
			c1.1-0.6,1.1-2.2,1.2-3.4L-670.2,32.9z M-671,41.7c0-0.7-1.1-0.8-1.8-0.8c-0.7,0-1.9-0.1-2.4,0.5c-0.1,1-0.2,3.5-0.2,4.5l3.1,0.1
			c0.3,0,0.9,0,0.9,0l0.2-0.4L-671,41.7z"/>
		<path fill="#FFFFFF" d="M-660,28.2h0.3c1.2,0,2.8,0.3,7.2,0.4c0.2,0.1,0.3,0.3,0.4,0.5c0,0.2,0,1.5,0,1.8c0,0.4,0,1.7,0,1.8
			c-0.3,4.9-0.7,11.6-0.8,16.5l-0.4,0.4h-2.3c-0.7,0-0.8-0.8-0.8-1.2c0-2.4,0.2-4.8,0.2-7.2h-0.5c-1.7,0-4.4,0.1-5,0.1
			c-0.3,1.7-0.6,3.4-0.8,5.1c0,0.3-0.1,2.3-0.2,2.5c-0.1,0.5-0.4,0.9-1,0.9c-0.3,0-0.7-0.2-0.8-0.4v-0.7c0-6.3,0.3-12.6,0.2-18.9
			c-0.1-0.8,0.3-1.6,1.1-1.6C-662.7,28.3-660.5,28.3-660,28.2z M-656.3,31.7l-3.7,0.2l-0.1,0.6c-0.1,1.8-0.4,3.6-0.8,5.3
			c1.2-0.1,3.4-0.2,4.6-0.3v-0.2C-656.3,35.4-656.4,33.6-656.3,31.7z"/>
		<path fill="#ED7C00" d="M-662.8,12.4c-2.9,1.3-6.1,1.6-9.3,2.1c-2.9,0.5-5.9-0.2-8.4-1.8c-4.5-2.8-13.4,4.7-14.3-1
			c-0.6-3.8-7.6-4.3-13-3.2c-9.4,2-15.3,6.1-16.2,8.6c-2.4,7,21.9-3,25.2,3.3c2,3.9,12.6-3,17.2-2.9c2.1,0.1,4.2,0.2,6.2,0.7
			c2.4,0.5,4.6,0.1,6.8-0.9c1.5-0.7,2.9-1.5,4.4-2.2C-654.5,10.3-655,8.9-662.8,12.4z M-697.3,17.4c-1.4-3.3-19,0-16.4-3.3
			c0.9-1.2,2-1.5,8.9-1.9c4-0.2,8.8,1.2,8.7,3.1c-0.1,2.1,7.5-0.4,11-1c1.9-0.3,2.4,0.7,0.2,1.4C-688.4,17-696.6,19-697.3,17.4z"/>
	</g>
</g>
</svg>
