<?xml version="1.0" encoding="utf-8"?>
<!-- Generator: Adobe Illustrator 19.0.0, SVG Export Plug-In . SVG Version: 6.00 Build 0)  -->
<svg version="1.1" xmlns="http://www.w3.org/2000/svg" xmlns:xlink="http://www.w3.org/1999/xlink" x="0px" y="0px"
	 viewBox="-857 -3 205 67" style="enable-background:new -857 -3 205 67;" xml:space="preserve">
<style type="text/css">
	.st0{clip-path:url(#SVGID_2_);}
	.st1{fill:#ED7C00;}
	.st2{fill:#D66446;}
	.st3{fill:#FFFFFF;}
</style>
<g>
	<g>
		<defs>
			<rect x="-857" y="-3" width="205" height="67"/>
		</defs>
		<clipPath>
			<use xlink:href="#SVGID_1_"  style="overflow:visible;"/>
		</clipPath>
		<g class="st0">
			<path class="st1" d="M-840.6,49.5c-1.6-2.4-3.1-5.1-4.1-7.9c-2.1-5.6-2.3-11.4,0.9-16.7c1.5-2.4,3.8-4.3,5.2-6.7
				c1.4-2.3,3.2-3.4,5.6-3.6c2.3-0.2,4.6-0.2,6.9-0.4c7.7-0.5,13.8,2.9,18.3,9.5c4.9,7.3,6,15.6,4.1,24.2c-1.2,5.2-3.8,9.7-9.1,11.5
				c-2.4,0.8-4.8,1.7-7,3c-2.6,1.5-5.3,1.8-8.1,1.4c-1.9-0.3-3.9-0.4-5.7-1c-3.3-1-6.4-2.3-9.6-3.4c0.1-0.3,0.2-0.5,0.3-0.8
				c0.5,0.2,1,0.4,1.5,0.5c1.8,0.4,3.6,1.2,5.4,1.1c3.8-0.1,7.6-0.4,11.3-1c3.5-0.5,6.7-2.3,9.2-5.1c4.4-4.9,6.1-10.8,5.4-17.7
				c-0.7-7.5-5.9-14.7-14.5-14.9c-7.4-0.2-12.9,5.7-12.2,13.4c0.1,0.8,0.2,1.6,0.1,2.3c-0.3,3.2,0.7,5.6,3.3,6.9
				c1.1,0.5,3.5,0.7,3.6,0.5c0.5-2,2.1-1.6,3.3-2.1c1.4-0.6,2.6-1.4,2.6-3.3c0.1-1.8-0.4-3.1-2.1-3.8c-2.3-1-2.6-2.2-2-4.9
				c0.1-0.2,0.2-0.5,0.1-0.6c-1-1-1.1-2.1,0.2-2.8c1-0.6,2.1-1.2,3.2-1.1c3.2,0.1,5.5,1.9,7.2,4.7c2.7,4.3,2.4,8.7,0.8,13.4
				c-1.1,3.4-5.5,7.2-8.9,7c-2.6-0.2-5.3-0.4-7.9-1c-5.7-1.2-9.6-7.2-9-13.5c0.1-1.1,0.1-2.1,0.2-3.7c-2.2,1.4-2.2,3.4-2,5.1
				c1,9.5,6.4,14,15,14.5C-832.7,54.5-838.1,53.3-840.6,49.5z M-840.6,29.1c5.7-12.3,22.9-14,30.4-2.4c2.6,3.9,5.1,8.2,4.1,13.6
				c-0.1,0.5,0.1,1,0.2,1.5c0.2,0.1,0.5,0.1,0.7,0.2c0.3-1,0.7-1.9,0.7-2.9c-0.1-4.2-1-8.1-3.3-11.6c-2.9-4.4-6.2-8.3-11.1-9.8
				c-6.6-1.9-12.7-0.6-18.1,4.1c-1.8,1.6-3.3,3.8-4.8,5.9c-0.5,0.7-0.6,1.7-0.8,2.6c0.2,0.1,0.4,0.3,0.7,0.4
				C-841.5,30.1-840.9,29.7-840.6,29.1z"/>
			<path class="st2" d="M-825.1,11.8c8.2,0.7,14.8,4.2,19.4,11.8c4.5,7.3,5,15.4,4.1,23.8c3.6-7.7,2.9-15.3-0.7-22.5
				C-807,15.7-816.4,10.4-825.1,11.8z"/>
			<path class="st1" d="M-809.3,7c1-0.3,1.9-0.2,2.3-0.6c2.3-3,4.4-6.1,6.4-9.4c-4.4,0.8-7.9,3.4-11.1,6.7c0.5,0.7,0.9,1.4,1.7,2.6
				c-3.4-1-3.2,1.7-3.7,3.4c-0.4,1.3,0.2,2.6,1.7,3c0.7,0.2,2,0.4,2.2,0.1C-808.9,11-807.3,9.3-809.3,7z"/>
			<path class="st2" d="M-793.9,20.5c-1.5,1.3-2.9,2.3-4.3,3.5c-1.5,1.4-1.1,2.9,0,4.2c1.2,1.5,2.2,0.3,3.1-0.5
				c0.1-0.1,0.2-0.2,0.3-0.3C-791.8,25-791.8,25-793.9,20.5z"/>
			<path class="st1" d="M-852,11.1c1.6,2.2,3,4.5,4.7,6.6c0.5,0.6,1.7,0.7,2.5,0.7c0.5,0,1.2-0.6,1.4-1.2c0.1-0.5-0.2-1.4-0.7-1.7
				c-2.5-1.7-5-3.3-7.5-4.9C-851.9,10.4-852.2,10.8-852,11.1z"/>
			<path class="st2" d="M-827.9,8.8c-0.3-1.2-0.6-2.1-0.6-3c-0.1-1.9-1-2.2-2.4-1.7c-1,0.4-2.9,0.1-2.4,2.4c0.5,2.1,2,3.3,3.7,3
				C-829.1,9.3-828.6,9-827.9,8.8z"/>
			<path class="st2" d="M-783.5,21.7c-1.2-0.4-2.4-0.8-3.7-1.3c-0.3,0.8-0.5,1.3-0.8,2.1c-1-1.6-1.8-3.2-3.9-2
				c0.4,1.4,0.8,2.7,1.2,3.9c2.5-0.7,4.8-1.4,7.1-2C-783.6,22.2-783.6,21.9-783.5,21.7z"/>
			<path class="st2" d="M-834.1,3.5c1.8-0.3,2.9-0.5,4.5-0.8c-0.9-2-1.6-3.8-2.4-5.6c-0.3,0-0.7,0.1-1,0.1
				C-833.3-0.8-833.7,1.2-834.1,3.5z"/>
			<path class="st2" d="M-847.6,38.2c-0.5,3.4,0.1,6.5,2.9,9.3C-845.7,44-846.7,41.1-847.6,38.2z"/>
			<path class="st2" d="M-856.9,29.2c1.7,1,3.4,2.1,5.2,2.9c0.5,0.2,1.4-0.1,2-0.4c0.3-0.2,0.7-0.9,0.6-1.3c-0.1-0.4-0.6-0.9-1-1
				c-2.2-0.3-4.4-0.5-6.6-0.8C-857,28.7-857.1,29.1-856.9,29.2z"/>
			<path class="st3" d="M-778.7,10.2c0.5-0.6,0.9-0.6,1.7-0.6h0.5c0.7,0,1.3,0,1.3,0.8c0,0.8-0.3,1.6,0.9,16v0.1
				c0,0.4,0,0.7,0.7,0.9c1,0.1,1,0.2,1.8,0.2l0.3-1.8v-0.5c0-3.7,0.5-11.4,0.6-14.8c0.3-0.8,1.2-0.9,2-0.9c0.7,0,1.4,0,1.8,0.6
				l-1.6,20.4c-0.1,0.3-0.3,0.6-0.7,0.6h-6.7c-0.1,0-0.4-0.1-0.4-0.2l-2.2-19.3L-778.7,10.2L-778.7,10.2z"/>
			<path class="st3" d="M-765.3,23.8c0-0.2,0-3,0-4.1c0-1,0-3.8,0-3.9c0-0.4,0.1-3.3,0.2-3.6v-0.9c0-1.4,0-2.4,2-2.4
				c0.1,0,0.8,0,0.9,0c0.2,0.1,0.3,0.3,0.4,0.5c-0.1,5.2,0,10.4,0.5,15.6c0.3,3.5-0.1,3.3-0.1,5.4h-3.4c-0.1,0-0.4-0.6-0.4-0.6
				L-765.3,23.8z"/>
			<path class="st3" d="M-759.2,30.9v-0.7c0-3,0.3-6,0.3-9.1c0-2.7-0.3-5.3-0.3-8c0-0.4,0-1.9,0-2.3c0.2-0.7,0.8-0.9,1.6-0.9
				c1.2,0,1.6,1.1,1.6,2v14.2c0,1,0.4,1.3,1.4,1.3c2.1,0,4.2-0.6,6.2-0.6c0.5,0,1.1,0.3,1.1,0.9V31c0,0.3-0.7,0.6-1,0.6h-0.2
				c-1.5,0-8.3-0.2-9.7-0.2C-758.7,31.3-759,31.1-759.2,30.9z"/>
			<path class="st3" d="M-741.1,9.6h0.3c1.2,0,2.8,0.3,7.2,0.4c0.2,0.1,0.3,0.3,0.4,0.5c0,0.2,0,1.5,0,1.8c0,0.4,0,1.7,0,1.8
				c-0.3,4.9-0.7,11.6-0.8,16.5l-0.4,0.4h-2.3c-0.6,0-0.8-0.8-0.8-1.2c0-2.4,0.2-4.8,0.2-7.2h-0.5c-1.7,0-4.4,0.1-5,0.1
				c-0.3,1.7-0.6,3.4-0.8,5.1c0,0.3-0.1,2.3-0.2,2.5c-0.1,0.5-0.4,0.9-1,0.9c-0.3,0-0.7-0.2-0.9-0.4v-0.7c0-6.3,0.3-12.6,0.2-18.9
				c-0.1-0.8,0.3-1.6,1.1-1.6C-743.7,9.7-741.5,9.6-741.1,9.6z M-737.4,13.1l-3.7,0.2l-0.1,0.6c-0.1,1.8-0.4,3.6-0.8,5.3
				c1.2-0.1,3.4-0.2,4.6-0.3v-0.2C-737.4,16.8-737.4,15-737.4,13.1z"/>
			<path class="st3" d="M-778.1,54.7c0-2.3-0.7-4.6-0.7-7v-0.6l0.4-9.5c0.1-0.9,0-2.9,1-3.6c3.9-0.2,6.5-0.2,10.2-0.2
				c0.7,0,2.3,0,2.4,0l0.4,0.4c0,0.1,0,0.7,0,1s0,1.3,0,1.4c-0.2,2.5-0.8,8.4-0.8,8.5l-0.7,0.6l-8.5,0.6c-0.3,2.8-0.5,5.8-0.7,8.9
				c0,0.1-0.4,0.7-0.6,0.7h-2l-0.4-0.4C-778.1,55.1-778.1,54.9-778.1,54.7z M-773,42.4c1.2,0,2.3-0.1,3.6-0.2
				c0.4-0.2,0.4-0.6,0.4-0.9v-0.5c0-0.5-0.2-2.6-0.2-3.1c-0.1-0.6-0.7-0.6-1.2-0.6c-1.2,0-2.3,0.1-3.6,0.2c-0.6,0.1-0.4,2.1-0.4,2.4
				C-774.5,40.9-774.7,42.4-773,42.4z"/>
			<path class="st3" d="M-762.4,48.4c0-0.2,0-3,0-4.1c0-1,0-3.8,0-3.9c0-0.4,0.1-3.3,0.2-3.6v-0.9c0-1.4,0-2.4,2-2.4
				c0.1,0,0.8,0,0.9,0c0.2,0.1,0.3,0.3,0.4,0.5c-0.1,5.2,0,10.4,0.5,15.6c0.3,3.5-0.1,3.3-0.1,5.4h-3.4c-0.1,0-0.4-0.6-0.4-0.6
				L-762.4,48.4z"/>
			<path class="st3" d="M-756.4,53.2l0.2-17.8c0-0.2,0.1-1.3,0.4-1.6c3.3-0.4,6.9-0.4,10.3-0.4c0.3,0,0.9,0,0.9,0l0.4,0.4v2.5
				l-0.4,0.4c-2.4-0.1-3.7-0.1-6,0.2c-2.4,0.2-2.3,1.4-2.3,3.1v11c0.2,0.2,0.8,0.6,1,0.6h5.8c0.8,0,1.5,0.6,1.5,1.3
				c0,0.6,0.2,1.7-0.6,1.9l-6.4,0.2h-4.2c-0.5-0.4-0.6-0.6-0.6-1.2V53.2L-756.4,53.2z"/>
			<path d="M-742.2,48.4c0-0.2,0-3,0-4.1c0-1,0-3.8,0-3.9c0-0.4,0.1-3.3,0.2-3.6v-0.9c0-1.4,0-2.4,2-2.4
				c0.1,0,0.8,0,0.9,0c0.2,0.1,0.3,0.3,0.4,0.5c-0.1,5.2,0,10.4,0.5,15.6c0.3,3.5-0.1,3.3-0.1,5.4h-3.4c-0.1,0-0.4-0.6-0.4-0.6
				L-742.2,48.4z"/>
			<path d="M-736.2,54.8c0-6.3,0.3-12.6,0.2-18.9c0.1-0.6,0.7-1.1,1.2-1.3c0.9-0.1,4.9-0.2,5.8-0.2h0.6
				c0.6,0,3.5,0.2,4.2,0.2c0.2,0.1,0.3,0.3,0.4,0.5c0,0.2,0,1.5,0,1.8c0,0.4,0,1.7,0,1.8c0,0.6-0.4,5.4-0.4,6c0,0.2,0,2.1,0,2.3
				c0,0.1-0.1,0.6-0.2,0.7c-0.1,2-0.3,5.2-0.2,7.5l-0.4,0.4h-2.3c-0.7,0-0.8-0.8-0.8-1.2c0-2.5,0.2-5,0.2-7.5c0-0.7,0-2.6,0-2.8
				c0-0.8-0.1-4.1-0.2-4.7c-0.1-1.3-1-1.5-2.4-1.5c-0.2,0-0.8,0.1-0.8,0.1l-0.4,0.4c-0.4,4.7-1.7,9.3-2.3,14c0,0.3-0.1,2.3-0.2,2.5
				c-0.1,0.5-0.4,0.9-1,0.9c-0.3,0-0.7-0.2-0.8-0.4v-0.6H-736.2z"/>
			<path d="M-721.8,54.3c0-0.6,0.1-1,0.3-1.7c0.1-1.9,0.1-9.1,0.2-11.5v-0.2c0-0.4,0-3.1,0-3.5c0-0.8-0.3-2.8,1-3.3
				c1,0,6-0.2,7-0.2c0.1,0,1.7,0,2.3,0c1,0,3.6-0.4,3.6,1.1c0,0.6-0.1,2.5-1.2,2.5h-6.8c-0.5,0-1,0.4-1.2,0.7c0,0.4-0.2,2.3-0.2,2.7
				c-0.1,3.2,0,5.1,0,8.3v2.2c0,0.3,0.4,0.5,0.8,0.5l3.9-0.4c0,0,0.3-0.1,0.4-0.2l0.2-0.2V46c0-0.2-0.3-0.5-0.4-0.5h-0.1
				c-1.1,0-3,0.2-3-1.1c0-2.2,2.1-2.2,4.2-2.2h0.7c0.3,0,0.5,0,0.7,0h0.6c1,0,1.3,0.6,1.3,1.4c0,1.3-0.3,2.6-0.3,3.9
				c0,2.4,0.5,4.8,0.5,7.2c0,0.7-0.5,0.8-1.2,0.8c-4.1,0-8.4-0.2-12.5-0.4C-721.7,55.2-721.8,54.9-721.8,54.3z"/>
			<path d="M-705.6,55c0-0.3,0-1.5,0-1.7c0-0.5,0-1.7,0-1.7c0-0.3,0.2-2.8,0.2-3.1c0-1,0-9.3,0-10.3v-0.5
				c0-1.2-0.1-3.2,1.6-3.2c0.4,0,1.2,0.1,1.2,0.6l0.4,1.8v13.6c0,1,0,1.3,1,1.3c0.5,0,2.1,0,2.1-0.7v-14c0-1.3,0.3-2.3,1.9-2.3
				c1.3,0,1.5,0.3,2,1.4c0,0.7,0,3.9,0,4.6c0,4.9-0.2,9.9-0.5,14.9c-0.3,0.4-0.7,0.4-1.2,0.4h-0.8c-1,0-5.8-0.1-6.8-0.2
				C-704.9,55.7-705.3,55.3-705.6,55z"/>
			<path d="M-689.1,34.2h0.3c1.2,0,2.8,0.3,7.2,0.4c0.2,0.1,0.3,0.3,0.4,0.5c0,0.2,0,1.5,0,1.8c0,0.4,0,1.7,0,1.8
				c-0.3,4.9-0.7,11.6-0.8,16.5l-0.4,0.4h-2.3c-0.6,0-0.8-0.8-0.8-1.2c0-2.4,0.2-4.8,0.2-7.2h-0.5c-1.7,0-4.4,0.1-5,0.1
				c-0.3,1.7-0.6,3.4-0.8,5.1c0,0.3-0.1,2.3-0.2,2.5c-0.1,0.5-0.4,0.9-1,0.9c-0.3,0-0.7-0.2-0.9-0.4v-0.7c0-6.3,0.3-12.6,0.2-18.9
				c-0.1-0.8,0.3-1.6,1.1-1.6C-691.8,34.3-689.6,34.3-689.1,34.2z M-685.4,37.7l-3.7,0.2l-0.1,0.6c-0.1,1.8-0.4,3.6-0.8,5.3
				c1.2-0.1,3.4-0.2,4.6-0.3v-0.2C-685.4,41.4-685.5,39.6-685.4,37.7z"/>
			<path d="M-666.1,53.2c-0.1,2.2-0.6,2.4-3.2,2.4c-0.5,0-5.2,0-6.6,0h-0.9c-1,0-2.1-0.2-2.4-1.2v-6.7l0.1-1.6
				c0.1-3.5-0.1-8.2,0.3-11.5c0-0.2,0.8-0.4,1.1-0.4l11.7,0.3l-0.1,8.8l-1.8,1.2v0.4l1.8,0.9V53.2z M-670.2,38.9
				c0-1-0.4-1.5-1.5-1.6c-0.9,0-4.4-0.4-4.4,1.1v0.1c0.1,1.3,0.3,4.1,0.3,4.1c0.2,0.2,0.7,0.2,0.9,0.2c1.2,0,2.2,0,3.5-0.1
				c1.1-0.6,1.1-2.2,1.2-3.4V38.9z M-671,47.7c0-0.7-1.1-0.8-1.8-0.8s-1.9-0.1-2.4,0.5c-0.1,1-0.2,3.5-0.2,4.5l3.1,0.1
				c0.3,0,0.9,0,0.9,0l0.2-0.4L-671,47.7z"/>
			<path d="M-660,34.2h0.3c1.2,0,2.8,0.3,7.2,0.4c0.2,0.1,0.3,0.3,0.4,0.5c0,0.2,0,1.5,0,1.8c0,0.4,0,1.7,0,1.8
				c-0.3,4.9-0.7,11.6-0.8,16.5l-0.4,0.4h-2.3c-0.7,0-0.8-0.8-0.8-1.2c0-2.4,0.2-4.8,0.2-7.2h-0.5c-1.7,0-4.4,0.1-5,0.1
				c-0.3,1.7-0.6,3.4-0.8,5.1c0,0.3-0.1,2.3-0.2,2.5c-0.1,0.5-0.4,0.9-1,0.9c-0.3,0-0.7-0.2-0.9-0.4v-0.7c0-6.3,0.3-12.6,0.2-18.9
				c-0.1-0.8,0.3-1.6,1.1-1.6C-662.7,34.3-660.5,34.3-660,34.2z M-656.3,37.7l-3.7,0.2l-0.1,0.6c-0.1,1.8-0.4,3.6-0.8,5.3
				c1.2-0.1,3.4-0.2,4.6-0.3v-0.2C-656.3,41.4-656.4,39.6-656.3,37.7z"/>
			<path d="M-662.8,18.4c-2.9,1.3-6.1,1.6-9.3,2.1c-2.9,0.5-5.9-0.2-8.4-1.8c-4.5-2.8-13.4,4.7-14.3-1
				c-0.6-3.8-7.6-4.3-13-3.2c-9.4,2-15.3,6.1-16.2,8.6c-2.4,7,21.9-3,25.2,3.3c2,3.9,12.6-3,17.2-2.9c2.1,0.1,4.2,0.2,6.2,0.7
				c2.4,0.5,4.6,0.1,6.8-0.9c1.5-0.7,2.9-1.5,4.4-2.2C-654.5,16.3-655,14.9-662.8,18.4z M-697.3,23.4c-1.4-3.3-19,0-16.4-3.3
				c0.9-1.2,2-1.5,8.9-1.9c4-0.2,8.8,1.2,8.7,3.1c-0.1,2.1,7.5-0.4,11-1c1.9-0.3,2.4,0.7,0.2,1.4C-688.4,23-696.6,25-697.3,23.4z"/>
		</g>
	</g>
</g>
</svg>
