<?xml version="1.0" encoding="utf-8"?>
<!-- Generator: Adobe Illustrator 19.0.0, SVG Export Plug-In . SVG Version: 6.00 Build 0)  -->
<svg version="1.1" id="Camada_1" xmlns="http://www.w3.org/2000/svg" xmlns:xlink="http://www.w3.org/1999/xlink" x="0px" y="0px"
	 viewBox="95 -30 205 67" style="enable-background:new 95 -30 205 67;" xml:space="preserve">
<style type="text/css">
	.st0{clip-path:url(#SVGID_2_);}
	.st1{fill:#ED7C00;}
	.st2{fill:#D66446;}
	.st3{fill:#FFFFFF;}
</style>
<g>
	<defs>
		<rect id="SVGID_1_" x="95" y="-30" width="205" height="67"/>
	</defs>
	<clipPath id="SVGID_2_">
		<use xlink:href="#SVGID_1_"  style="overflow:visible;"/>
	</clipPath>
	<g class="st0">
		<path class="st1" d="M111.4,22.5c-1.6-2.4-3.1-5.1-4.1-7.9C105.2,9,105,3.2,108.2-2.1c1.5-2.4,3.8-4.3,5.2-6.7
			c1.4-2.3,3.2-3.4,5.6-3.6c2.3-0.2,4.6-0.2,6.9-0.4c7.7-0.5,13.8,2.9,18.3,9.5c4.9,7.3,6,15.6,4.1,24.2c-1.2,5.2-3.8,9.7-9.1,11.5
			c-2.4,0.8-4.8,1.7-7,3c-2.6,1.5-5.3,1.8-8.1,1.4c-1.9-0.3-3.9-0.4-5.7-1c-3.3-1-6.4-2.3-9.6-3.4c0.1-0.3,0.2-0.5,0.3-0.8
			c0.5,0.2,1,0.4,1.5,0.5c1.8,0.4,3.6,1.2,5.4,1.1c3.8-0.1,7.6-0.4,11.3-1c3.5-0.5,6.7-2.3,9.2-5.1c4.4-4.9,6.1-10.8,5.4-17.7
			c-0.7-7.5-5.9-14.7-14.5-14.9c-7.4-0.2-12.9,5.7-12.2,13.4c0.1,0.8,0.2,1.6,0.1,2.3c-0.3,3.2,0.7,5.6,3.3,6.9
			c1.1,0.5,3.5,0.7,3.6,0.5c0.5-2,2.1-1.6,3.3-2.1c1.4-0.6,2.6-1.4,2.6-3.3c0.1-1.8-0.4-3.1-2.1-3.8c-2.3-1-2.6-2.2-2-4.9
			c0.1-0.2,0.2-0.5,0.1-0.6c-1-1-1.1-2.1,0.2-2.8c1-0.6,2.1-1.2,3.2-1.1c3.2,0.1,5.5,1.9,7.2,4.7c2.7,4.3,2.4,8.7,0.8,13.4
			c-1.1,3.4-5.5,7.2-8.9,7c-2.6-0.2-5.3-0.4-7.9-1c-5.7-1.2-9.6-7.2-9-13.5c0.1-1.1,0.1-2.1,0.2-3.7c-2.2,1.4-2.2,3.4-2,5.1
			c1,9.5,6.4,14,15,14.5C119.3,27.5,113.9,26.3,111.4,22.5z M111.4,2.1c5.7-12.3,22.9-14,30.4-2.4c2.6,3.9,5.1,8.2,4.1,13.6
			c-0.1,0.5,0.1,1,0.2,1.5c0.2,0.1,0.5,0.1,0.7,0.2c0.3-1,0.7-1.9,0.7-2.9c-0.1-4.2-1-8.1-3.3-11.6c-2.9-4.4-6.2-8.3-11.1-9.8
			c-6.6-1.9-12.7-0.6-18.1,4.1c-1.8,1.6-3.3,3.8-4.8,5.9c-0.5,0.7-0.6,1.7-0.8,2.6c0.2,0.1,0.4,0.3,0.7,0.4
			C110.5,3.1,111.1,2.7,111.4,2.1z"/>
		<path class="st2" d="M126.9-15.2c8.2,0.7,14.8,4.2,19.4,11.8c4.5,7.3,5,15.4,4.1,23.8c3.6-7.7,2.9-15.3-0.7-22.5
			C145-11.3,135.6-16.6,126.9-15.2z"/>
		<path class="st1" d="M142.7-20c1-0.3,1.9-0.2,2.3-0.6c2.3-3,4.4-6.1,6.4-9.4c-4.4,0.8-7.9,3.4-11.1,6.7c0.5,0.7,0.9,1.4,1.7,2.6
			c-3.4-1-3.2,1.7-3.7,3.4c-0.4,1.3,0.2,2.6,1.7,3c0.7,0.2,2,0.4,2.2,0.1C143.1-16,144.7-17.7,142.7-20z"/>
		<path class="st2" d="M158.1-6.5c-1.5,1.3-2.9,2.3-4.3,3.5c-1.5,1.4-1.1,2.9,0,4.2c1.2,1.5,2.2,0.3,3.1-0.5
			c0.1-0.1,0.2-0.2,0.3-0.3C160.2-2,160.2-2,158.1-6.5z"/>
		<path class="st1" d="M100-15.9c1.6,2.2,3,4.5,4.7,6.6c0.5,0.6,1.7,0.7,2.5,0.7c0.5,0,1.2-0.6,1.4-1.2c0.1-0.5-0.2-1.4-0.7-1.7
			c-2.5-1.7-5-3.3-7.5-4.9C100.1-16.6,99.8-16.2,100-15.9z"/>
		<path class="st2" d="M124.1-18.2c-0.3-1.2-0.6-2.1-0.6-3c-0.1-1.9-1-2.2-2.4-1.7c-1,0.4-2.9,0.1-2.4,2.4c0.5,2.1,2,3.3,3.7,3
			C122.9-17.7,123.4-18,124.1-18.2z"/>
		<path class="st2" d="M168.5-5.3c-1.2-0.4-2.4-0.8-3.7-1.3c-0.3,0.8-0.5,1.3-0.8,2.1c-1-1.6-1.8-3.2-3.9-2c0.4,1.4,0.8,2.7,1.2,3.9
			c2.5-0.7,4.8-1.4,7.1-2C168.4-4.8,168.4-5.1,168.5-5.3z"/>
		<path class="st2" d="M117.9-23.5c1.8-0.3,2.9-0.5,4.5-0.8c-0.9-2-1.6-3.8-2.4-5.6c-0.3,0-0.7,0.1-1,0.1
			C118.7-27.8,118.3-25.8,117.9-23.5z"/>
		<path class="st2" d="M104.4,11.2c-0.5,3.4,0.1,6.5,2.9,9.3C106.3,17,105.3,14.1,104.4,11.2z"/>
		<path class="st2" d="M95.1,2.2c1.7,1,3.4,2.1,5.2,2.9c0.5,0.2,1.4-0.1,2-0.4c0.3-0.2,0.7-0.9,0.6-1.3c-0.1-0.4-0.6-0.9-1-1
			c-2.2-0.3-4.4-0.5-6.6-0.8C95,1.7,94.9,2.1,95.1,2.2z"/>
		<path class="st3" d="M173.3-16.8c0.5-0.6,0.9-0.6,1.7-0.6h0.5c0.7,0,1.3,0,1.3,0.8c0,0.8-0.3,1.6,0.9,16v0.1c0,0.4,0,0.7,0.7,0.9
			c1,0.1,1,0.2,1.8,0.2l0.3-1.8v-0.5c0-3.7,0.5-11.4,0.6-14.8c0.3-0.8,1.2-0.9,2-0.9c0.7,0,1.4,0,1.8,0.6l-1.6,20.4
			c-0.1,0.3-0.3,0.6-0.7,0.6h-6.7c-0.1,0-0.4-0.1-0.4-0.2l-2.2-19.3V-16.8z"/>
		<path class="st3" d="M186.7-3.2c0-0.2,0-3,0-4.1c0-1,0-3.8,0-3.9c0-0.4,0.1-3.3,0.2-3.6v-0.9c0-1.4,0-2.4,2-2.4c0.1,0,0.8,0,0.9,0
			c0.2,0.1,0.3,0.3,0.4,0.5c-0.1,5.2,0,10.4,0.5,15.6c0.3,3.5-0.1,3.3-0.1,5.4h-3.4c-0.1,0-0.4-0.6-0.4-0.6L186.7-3.2z"/>
		<path class="st3" d="M192.8,3.9V3.2c0-3,0.3-6,0.3-9.1c0-2.7-0.3-5.3-0.3-8c0-0.4,0-1.9,0-2.3c0.2-0.7,0.8-0.9,1.6-0.9
			c1.2,0,1.6,1.1,1.6,2v14.2c0,1,0.4,1.3,1.4,1.3c2.1,0,4.2-0.6,6.2-0.6c0.5,0,1.1,0.3,1.1,0.9v3.3c0,0.3-0.7,0.6-1,0.6h-0.2
			c-1.5,0-8.3-0.2-9.7-0.2C193.3,4.3,193,4.1,192.8,3.9z"/>
		<path class="st3" d="M210.9-17.4h0.3c1.2,0,2.8,0.3,7.2,0.4c0.2,0.1,0.3,0.3,0.4,0.5c0,0.2,0,1.5,0,1.8c0,0.4,0,1.7,0,1.8
			c-0.3,4.9-0.7,11.6-0.8,16.5l-0.4,0.4h-2.3c-0.6,0-0.8-0.8-0.8-1.2c0-2.4,0.2-4.8,0.2-7.2h-0.5c-1.7,0-4.4,0.1-5,0.1
			c-0.3,1.7-0.6,3.4-0.8,5.1c0,0.3-0.1,2.3-0.2,2.5c-0.1,0.5-0.4,0.9-1,0.9c-0.3,0-0.7-0.2-0.9-0.4V3.1c0-6.3,0.3-12.6,0.2-18.9
			c-0.1-0.8,0.3-1.6,1.1-1.6C208.3-17.3,210.5-17.4,210.9-17.4z M214.6-13.9l-3.7,0.2l-0.1,0.6c-0.1,1.8-0.4,3.6-0.8,5.3
			c1.2-0.1,3.4-0.2,4.6-0.3v-0.2C214.6-10.2,214.6-12,214.6-13.9z"/>
		<path class="st3" d="M173.9,27.7c0-2.3-0.7-4.6-0.7-7v-0.6l0.4-9.5c0.1-0.9,0-2.9,1-3.6c3.9-0.2,6.5-0.2,10.2-0.2
			c0.7,0,2.3,0,2.4,0l0.4,0.4c0,0.1,0,0.7,0,1c0,0.3,0,1.3,0,1.4c-0.2,2.5-0.8,8.4-0.8,8.5l-0.7,0.6l-8.5,0.6
			c-0.3,2.8-0.5,5.8-0.7,8.9c0,0.1-0.4,0.7-0.6,0.7h-2l-0.4-0.4C173.9,28.1,173.9,27.9,173.9,27.7z M179,15.4c1.2,0,2.3-0.1,3.6-0.2
			c0.4-0.2,0.4-0.6,0.4-0.9v-0.5c0-0.5-0.2-2.6-0.2-3.1c-0.1-0.6-0.7-0.6-1.2-0.6c-1.2,0-2.3,0.1-3.6,0.2c-0.6,0.1-0.4,2.1-0.4,2.4
			C177.5,13.9,177.3,15.4,179,15.4z"/>
		<path class="st3" d="M189.6,21.4c0-0.2,0-3,0-4.1c0-1,0-3.8,0-3.9c0-0.4,0.1-3.3,0.2-3.6V8.9c0-1.4,0-2.4,2-2.4c0.1,0,0.8,0,0.9,0
			c0.2,0.1,0.3,0.3,0.4,0.5c-0.1,5.2,0,10.4,0.5,15.6c0.3,3.5-0.1,3.3-0.1,5.4h-3.4c-0.1,0-0.4-0.6-0.4-0.6L189.6,21.4z"/>
		<path class="st3" d="M195.6,26.2l0.2-17.8c0-0.2,0.1-1.3,0.4-1.6c3.3-0.4,6.9-0.4,10.3-0.4c0.3,0,0.9,0,0.9,0l0.4,0.4v2.5
			l-0.4,0.4c-2.4-0.1-3.7-0.1-6,0.2c-2.4,0.2-2.3,1.4-2.3,3.1V24c0.2,0.2,0.8,0.6,1,0.6h5.8c0.8,0,1.5,0.6,1.5,1.3
			c0,0.6,0.2,1.7-0.6,1.9l-6.4,0.2h-4.2c-0.5-0.4-0.6-0.6-0.6-1.2V26.2z"/>
		<path class="st3" d="M209.8,21.4c0-0.2,0-3,0-4.1c0-1,0-3.8,0-3.9c0-0.4,0.1-3.3,0.2-3.6V8.9c0-1.4,0-2.4,2-2.4c0.1,0,0.8,0,0.9,0
			c0.2,0.1,0.3,0.3,0.4,0.5c-0.1,5.2,0,10.4,0.5,15.6c0.3,3.5-0.1,3.3-0.1,5.4h-3.4c-0.1,0-0.4-0.6-0.4-0.6L209.8,21.4z"/>
		<path class="st3" d="M215.8,27.8c0-6.3,0.3-12.6,0.2-18.9c0.1-0.6,0.7-1.1,1.2-1.3c0.9-0.1,4.9-0.2,5.8-0.2h0.6
			c0.6,0,3.5,0.2,4.2,0.2c0.2,0.1,0.3,0.3,0.4,0.5c0,0.2,0,1.5,0,1.8c0,0.4,0,1.7,0,1.8c0,0.6-0.4,5.4-0.4,6c0,0.2,0,2.1,0,2.3
			c0,0.1-0.1,0.6-0.2,0.7c-0.1,2-0.3,5.2-0.2,7.5l-0.4,0.4h-2.3c-0.7,0-0.8-0.8-0.8-1.2c0-2.5,0.2-5,0.2-7.5c0-0.7,0-2.6,0-2.8
			c0-0.8-0.1-4.1-0.2-4.7c-0.1-1.3-1-1.5-2.4-1.5c-0.2,0-0.8,0.1-0.8,0.1l-0.4,0.4c-0.4,4.7-1.7,9.3-2.3,14c0,0.3-0.1,2.3-0.2,2.5
			c-0.1,0.5-0.4,0.9-1,0.9c-0.3,0-0.7-0.2-0.8-0.4V27.8z"/>
		<path class="st3" d="M230.2,27.3c0-0.6,0.1-1,0.3-1.7c0.1-1.9,0.1-9.1,0.2-11.5v-0.2c0-0.4,0-3.1,0-3.5c0-0.8-0.3-2.8,1-3.3
			c1,0,6-0.2,7-0.2c0.1,0,1.7,0,2.3,0c1,0,3.6-0.4,3.6,1.1c0,0.6-0.1,2.5-1.2,2.5h-6.8c-0.5,0-1,0.4-1.2,0.7c0,0.4-0.2,2.3-0.2,2.7
			c-0.1,3.2,0,5.1,0,8.3v2.2c0,0.3,0.4,0.5,0.8,0.5l3.9-0.4c0,0,0.3-0.1,0.4-0.2l0.2-0.2v-5.1c0-0.2-0.3-0.5-0.4-0.5h-0.1
			c-1.1,0-3,0.2-3-1.1c0-2.2,2.1-2.2,4.2-2.2h0.7c0.3,0,0.5,0,0.7,0h0.6c1,0,1.3,0.6,1.3,1.4c0,1.3-0.3,2.6-0.3,3.9
			c0,2.4,0.5,4.8,0.5,7.2c0,0.7-0.5,0.8-1.2,0.8c-4.1,0-8.4-0.2-12.5-0.4C230.3,28.2,230.2,27.9,230.2,27.3z"/>
		<path class="st3" d="M246.4,28c0-0.3,0-1.5,0-1.7c0-0.5,0-1.7,0-1.7c0-0.3,0.2-2.8,0.2-3.1c0-1,0-9.3,0-10.3v-0.5
			c0-1.2-0.1-3.2,1.6-3.2c0.4,0,1.2,0.1,1.2,0.6l0.4,1.8v13.6c0,1,0,1.3,1,1.3c0.5,0,2.1,0,2.1-0.7v-14c0-1.3,0.3-2.3,1.9-2.3
			c1.3,0,1.5,0.3,2,1.4c0,0.7,0,3.9,0,4.6c0,4.9-0.2,9.9-0.5,14.9c-0.3,0.4-0.7,0.4-1.2,0.4h-0.8c-1,0-5.8-0.1-6.8-0.2
			C247.1,28.7,246.7,28.3,246.4,28z"/>
		<path class="st3" d="M262.9,7.2h0.3c1.2,0,2.8,0.3,7.2,0.4c0.2,0.1,0.3,0.3,0.4,0.5c0,0.2,0,1.5,0,1.8c0,0.4,0,1.7,0,1.8
			c-0.3,4.9-0.7,11.6-0.8,16.5l-0.4,0.4h-2.3c-0.6,0-0.8-0.8-0.8-1.2c0-2.4,0.2-4.8,0.2-7.2h-0.5c-1.7,0-4.4,0.1-5,0.1
			c-0.3,1.7-0.6,3.4-0.8,5.1c0,0.3-0.1,2.3-0.2,2.5c-0.1,0.5-0.4,0.9-1,0.9c-0.3,0-0.7-0.2-0.9-0.4v-0.7c0-6.3,0.3-12.6,0.2-18.9
			c-0.1-0.8,0.3-1.6,1.1-1.6C260.2,7.3,262.4,7.3,262.9,7.2z M266.6,10.7l-3.7,0.2l-0.1,0.6c-0.1,1.8-0.4,3.6-0.8,5.3
			c1.2-0.1,3.4-0.2,4.6-0.3v-0.2C266.6,14.4,266.5,12.6,266.6,10.7z"/>
		<path class="st3" d="M285.9,26.2c-0.1,2.2-0.6,2.4-3.2,2.4c-0.5,0-5.2,0-6.6,0l-0.9,0c-1,0-2.1-0.2-2.4-1.2l0-6.7l0.1-1.6
			c0.1-3.5-0.1-8.2,0.3-11.5c0-0.2,0.8-0.4,1.1-0.4L286,7.5l-0.1,8.8l-1.8,1.2v0.4l1.8,0.9L285.9,26.2z M281.8,11.9
			c0-1-0.4-1.5-1.5-1.6c-0.9,0-4.4-0.4-4.4,1.1v0.1c0.1,1.3,0.3,4.1,0.3,4.1c0.2,0.2,0.7,0.2,0.9,0.2c1.2,0,2.2,0,3.5-0.1
			c1.1-0.6,1.1-2.2,1.2-3.4L281.8,11.9z M281,20.7c0-0.7-1.1-0.8-1.8-0.8c-0.7,0-1.9-0.1-2.4,0.5c-0.1,1-0.2,3.5-0.2,4.5l3.1,0.1
			c0.3,0,0.9,0,0.9,0l0.2-0.4L281,20.7z"/>
		<path class="st3" d="M292,7.2h0.3c1.2,0,2.8,0.3,7.2,0.4c0.2,0.1,0.3,0.3,0.4,0.5c0,0.2,0,1.5,0,1.8c0,0.4,0,1.7,0,1.8
			c-0.3,4.9-0.7,11.6-0.8,16.5l-0.4,0.4h-2.3c-0.7,0-0.8-0.8-0.8-1.2c0-2.4,0.2-4.8,0.2-7.2h-0.5c-1.7,0-4.4,0.1-5,0.1
			c-0.3,1.7-0.6,3.4-0.8,5.1c0,0.3-0.1,2.3-0.2,2.5c-0.1,0.5-0.4,0.9-1,0.9c-0.3,0-0.7-0.2-0.9-0.4v-0.7c0-6.3,0.3-12.6,0.2-18.9
			c-0.1-0.8,0.3-1.6,1.1-1.6C289.3,7.3,291.5,7.3,292,7.2z M295.7,10.7l-3.7,0.2l-0.1,0.6c-0.1,1.8-0.4,3.6-0.8,5.3
			c1.2-0.1,3.4-0.2,4.6-0.3v-0.2C295.7,14.4,295.6,12.6,295.7,10.7z"/>
		<path class="st1" d="M289.2-8.6c-2.9,1.3-6.1,1.6-9.3,2.1c-2.9,0.5-5.9-0.2-8.4-1.8c-4.5-2.8-13.4,4.7-14.3-1
			c-0.6-3.8-7.6-4.3-13-3.2c-9.4,2-15.3,6.1-16.2,8.6c-2.4,7,21.9-3,25.2,3.3c2,3.9,12.6-3,17.2-2.9c2.1,0.1,4.2,0.2,6.2,0.7
			c2.4,0.5,4.6,0.1,6.8-0.9c1.5-0.7,2.9-1.5,4.4-2.2C297.5-10.7,297-12.1,289.2-8.6z M254.7-3.6c-1.4-3.3-19,0-16.4-3.3
			c0.9-1.2,2-1.5,8.9-1.9c4-0.2,8.8,1.2,8.7,3.1c-0.1,2.1,7.5-0.4,11-1c1.9-0.3,2.4,0.7,0.2,1.4C263.6-4,255.4-2,254.7-3.6z"/>
	</g>
</g>
</svg>
