<svg width="205" height="67" viewBox="0 0 205 67" fill="none" xmlns="http://www.w3.org/2000/svg">
<g clip-path="url(#clip0_381_695)">
<path d="M16.4081 52.5309C14.7998 50.0835 13.3179 47.4403 12.3059 44.6601C10.2458 39.0213 9.97473 33.2259 13.1733 27.9199C14.6371 25.4725 16.9322 23.6125 18.414 21.1847C19.8236 18.8743 21.6487 17.7779 23.998 17.5429C26.3111 17.308 28.6242 17.308 30.9374 17.1709C38.6538 16.7206 44.7618 20.0295 49.2616 26.6864C54.195 33.9894 55.2793 42.3106 53.3818 50.8863C52.2252 56.1335 49.5507 60.5976 44.2739 62.4184C41.8885 63.2407 39.467 64.161 37.2623 65.4336C34.642 66.9412 31.9493 67.2349 29.1302 66.8237C27.2147 66.5496 25.2449 66.393 23.4017 65.8252C20.1488 64.8267 16.9683 63.5344 13.7697 62.3793C13.86 62.1052 13.9323 61.831 14.0227 61.5374C14.5287 61.694 15.0166 61.8898 15.5226 61.9877C17.3297 62.3988 19.1549 63.1428 20.962 63.1233C24.757 63.045 28.552 62.7317 32.3108 62.1639C35.8527 61.6353 39.0513 59.8731 41.509 57.0929C45.8642 52.1785 47.6352 46.246 46.9485 39.3541C46.2075 31.8945 41.0392 24.6893 32.4192 24.4348C24.9919 24.2194 19.5163 30.1128 20.2211 37.8074C20.2934 38.5906 20.4199 39.3737 20.3476 40.1373C20.0223 43.3287 20.9982 45.7174 23.6185 46.99C24.7208 47.5187 27.1424 47.6557 27.1966 47.4403C27.7207 45.4433 29.329 45.8544 30.4856 45.3454C31.8951 44.7188 33.0517 43.8965 33.1059 42.0365C33.1601 40.2744 32.7083 38.9821 30.9735 38.199C28.7146 37.1808 28.3532 35.9669 29.0218 33.3042C29.076 33.0888 29.2025 32.756 29.1122 32.6581C28.1363 31.6204 28.0279 30.5631 29.2929 29.8387C30.2687 29.2709 31.4253 28.6835 32.4734 28.7226C35.6359 28.8205 37.9671 30.661 39.72 33.4216C42.4126 37.7095 42.0873 42.154 40.5332 46.7942C39.4128 50.1814 34.9853 53.9798 31.6421 53.784C29.0037 53.6274 26.3292 53.3533 23.745 52.805C18.0345 51.6107 14.1492 45.6195 14.7636 39.315C14.872 38.2577 14.872 37.2004 14.9624 35.6537C12.7938 37.0634 12.7577 39.0996 12.9384 40.7443C13.9323 50.2793 19.3176 54.7238 27.9556 55.272C24.251 57.5236 18.8658 56.251 16.4081 52.5309ZM16.3539 32.0903C22.0282 19.7554 39.214 18.0716 46.8039 29.6624C49.3881 33.5979 51.918 37.9053 50.9061 43.3091C50.8157 43.779 51.0506 44.3077 51.1229 44.7972C51.3578 44.8559 51.5928 44.9146 51.8458 44.9734C52.0988 44.014 52.5867 43.0546 52.5686 42.1148C52.424 37.9444 51.5385 33.9894 49.2616 30.5043C46.3882 26.1186 43.0812 22.1832 38.1297 20.7539C31.5698 18.8547 25.3895 20.1274 20.0765 24.8068C18.2333 26.4319 16.8057 28.6443 15.3238 30.6806C14.8178 31.3658 14.7455 32.4035 14.4745 33.2846C14.6913 33.4021 14.9082 33.5391 15.125 33.6566C15.5226 33.1475 16.0647 32.6972 16.3539 32.0903Z" fill="#ED7C00"/>
<path d="M31.8594 14.802C40.0818 15.4677 46.6778 19.0311 51.2859 26.5691C55.7495 33.8917 56.3278 41.9388 55.352 50.3578C58.9301 42.6828 58.2253 35.1056 54.611 27.8809C50.021 18.7178 40.5516 13.4119 31.8594 14.802Z" fill="#D66446"/>
<path d="M47.7258 10.0441C48.7378 9.7896 49.6594 9.86791 50.0028 9.41759C52.2797 6.42198 54.4121 3.30888 56.418 0C51.9725 0.841905 48.5209 3.3872 45.3042 6.65693C45.7741 7.38136 46.2259 8.08621 46.9849 9.26096C43.6236 8.282 43.7682 10.9448 43.3164 12.6286C42.955 13.9208 43.5513 15.2522 44.997 15.6046C45.738 15.7808 47.0029 15.9962 47.2017 15.6634C48.0872 13.9795 49.7317 12.2566 47.7258 10.0441Z" fill="#ED7C00"/>
<path d="M63.0854 23.4561C61.5494 24.7287 60.1398 25.8056 58.8025 26.9999C57.2665 28.3704 57.7183 29.8976 58.8206 31.2486C60.0314 32.7366 60.9711 31.5423 61.8927 30.7004C62.0012 30.6025 62.1096 30.5046 62.218 30.4067C65.1636 27.9593 65.1636 27.9593 63.0854 23.4561Z" fill="#D66446"/>
<path d="M5.00451 14.1166C6.55863 16.3095 7.96819 18.6198 9.66688 20.6756C10.1729 21.2826 11.3475 21.4196 12.2149 21.4196C12.7028 21.4196 13.4618 20.7735 13.6064 20.2449C13.7329 19.7554 13.3715 18.796 12.9378 18.5023C10.4801 16.7989 7.93204 15.2326 5.42014 13.588C5.11293 13.3922 4.78765 13.8033 5.00451 14.1166Z" fill="#ED7C00"/>
<path d="M29.1117 11.7865C28.8587 10.6118 28.5515 9.71111 28.5154 8.81047C28.425 6.91129 27.4853 6.57844 26.0758 7.12666C25.0276 7.53782 23.2024 7.22456 23.7084 9.49574C24.1783 11.6299 25.6601 12.8438 27.3769 12.4522C27.9371 12.3151 28.4431 12.041 29.1117 11.7865Z" fill="#D66446"/>
<path d="M73.4578 24.6894C72.2651 24.2587 71.0543 23.8475 69.8074 23.3972C69.5002 24.1804 69.3014 24.6894 68.9942 25.5118C67.9822 23.9454 67.1871 22.3008 65.1089 23.5147C65.5426 24.8852 65.9582 26.2362 66.3377 27.4305C68.8858 26.7061 71.1447 26.06 73.4036 25.4139C73.4036 25.1789 73.4397 24.9244 73.4578 24.6894Z" fill="#D66446"/>
<path d="M22.8774 6.5003C24.6484 6.18703 25.805 5.97166 27.4133 5.69755C26.5459 3.66131 25.805 1.87961 25.046 0.0979004C24.7207 0.137059 24.3954 0.176217 24.0701 0.195796C23.6906 2.19287 23.3112 4.17037 22.8774 6.5003Z" fill="#D66446"/>
<path d="M9.41401 41.1555C8.94416 44.6015 9.55858 47.695 12.3596 50.4165C11.2753 47.0488 10.3356 44.112 9.41401 41.1555Z" fill="#D66446"/>
<path d="M0.125573 32.1882C1.84234 33.1476 3.50489 34.244 5.27587 35.0664C5.79994 35.3013 6.64928 34.988 7.24564 34.6944C7.58899 34.5181 7.91427 33.8133 7.86006 33.4021C7.80584 33.0301 7.26371 32.5015 6.88421 32.4428C4.69759 32.1099 2.47483 31.9141 0.270143 31.6792C-0.000925579 31.6596 -0.109353 32.0512 0.125573 32.1882Z" fill="#D66446"/>
<path d="M78.2661 13.216C78.7902 12.6482 79.2058 12.6482 79.9467 12.6482H80.4889C81.1575 12.6482 81.8081 12.6678 81.8081 13.451C81.8081 14.2537 81.5551 15.0761 82.7478 29.4276V29.5255C82.7478 29.9562 82.7839 30.2695 83.3983 30.4653C84.4103 30.5632 84.3742 30.6219 85.2416 30.6219L85.5127 28.8011V28.3508C85.5127 24.6307 86.0548 16.9361 86.1271 13.5489C86.3982 12.7461 87.2836 12.6287 88.0788 12.6287C88.7293 12.6287 89.4522 12.6287 89.8498 13.1965L88.2595 33.5588C88.2053 33.8329 87.9523 34.1266 87.6089 34.1266H80.9045C80.8142 34.1266 80.5431 34.0287 80.5069 33.97L78.2661 14.6845V13.216Z" fill="#133754"/>
<path d="M91.729 26.8431C91.729 26.6473 91.6929 23.8083 91.6929 22.7707C91.6929 21.733 91.729 19.0114 91.729 18.8548C91.729 18.5024 91.8736 15.5851 91.9097 15.2131V14.332C91.9097 12.9615 91.9459 11.9434 93.8614 11.9434C94.006 11.9434 94.6927 11.9629 94.8011 11.9629C95.018 12.1 95.1445 12.2762 95.2349 12.4916C95.0903 17.7192 95.271 22.9077 95.777 28.1158C96.1204 31.5813 95.7228 31.3855 95.7228 33.5588H92.3254C92.1808 33.5588 91.8917 32.991 91.8917 32.991L91.729 26.8431Z" fill="#133754"/>
<path d="M97.8008 33.8915V33.2454C97.8008 30.2106 98.0538 27.215 98.0538 24.1802C98.0538 21.4979 97.7827 18.8742 97.7827 16.1919C97.7827 15.8395 97.8189 14.2927 97.8189 13.9207C98.0357 13.255 98.6682 13.0005 99.373 13.0005C100.566 13.0005 100.927 14.0773 100.927 15.0171V29.1729C100.927 30.1714 101.361 30.4651 102.337 30.4651C104.415 30.4651 106.493 29.8778 108.517 29.8778C109.059 29.8778 109.619 30.1714 109.619 30.8176V34.0677C109.619 34.3418 108.878 34.6355 108.607 34.6355H108.391C106.927 34.6159 100.096 34.4789 98.6682 34.4201C98.3068 34.3418 98.0176 34.1069 97.8008 33.8915Z" fill="#133754"/>
<path d="M115.945 12.6287H116.252C117.499 12.6287 119.071 12.9028 123.499 13.0398C123.68 13.1769 123.806 13.3531 123.896 13.5685C123.896 13.8034 123.933 15.0956 123.933 15.3893C123.933 15.8201 123.896 17.1123 123.896 17.1906C123.643 22.0463 123.228 28.7423 123.065 33.6959L122.631 34.0679H120.354C119.704 34.0679 119.559 33.2651 119.559 32.854C119.559 30.4457 119.74 28.0375 119.776 25.6097H119.324C117.644 25.6097 114.897 25.7076 114.373 25.7076C114.03 27.3914 113.758 29.0752 113.542 30.7786C113.542 31.0527 113.397 33.0498 113.325 33.3239C113.271 33.8134 112.891 34.2441 112.313 34.2441C111.969 34.2441 111.662 34.0875 111.463 33.8721V33.1477C111.463 26.804 111.771 20.5974 111.68 14.2733C111.554 13.4901 111.951 12.6678 112.819 12.6678C113.252 12.6874 115.457 12.6482 115.945 12.6287ZM119.632 16.0942L115.927 16.2508L115.873 16.8382C115.728 18.6395 115.439 20.4016 115.114 22.1637C116.27 22.105 118.511 21.9679 119.74 21.8896V21.6938C119.632 19.8142 119.559 17.9542 119.632 16.0942Z" fill="#133754"/>
<path d="M78.9347 57.6611C78.9347 55.3116 78.2661 53.0208 78.2661 50.6713V50.0644L78.6637 40.5293C78.7179 39.5895 78.6275 37.6708 79.7118 36.9463C83.5971 36.7505 86.1632 36.731 89.8678 36.731C90.5365 36.731 92.2171 36.7505 92.2532 36.7505L92.687 37.103C92.687 37.1617 92.7231 37.8078 92.7231 38.0623C92.7231 38.3364 92.687 39.3154 92.687 39.4525C92.5062 41.939 91.928 47.8715 91.8557 47.9303L91.2051 48.5372L82.6755 49.105C82.3683 51.8852 82.1334 54.92 81.9707 57.994C81.9346 58.131 81.5731 58.7184 81.3563 58.7184H79.3142L78.9167 58.3464C78.8986 58.0918 78.9347 57.8765 78.9347 57.6611ZM83.9586 45.385C85.1874 45.385 86.2536 45.3066 87.5367 45.1892C87.8981 44.9738 87.9342 44.6214 87.9342 44.2494V43.7403C87.8981 43.29 87.7535 41.1363 87.7535 40.686C87.6632 40.1182 87.0126 40.1182 86.5608 40.1182C85.332 40.1182 84.2658 40.1965 82.9827 40.3335C82.3683 40.4706 82.549 42.3893 82.549 42.7418C82.549 43.9361 82.2599 45.385 83.9586 45.385Z" fill="#133754"/>
<path d="M94.5664 51.4347C94.5664 51.2389 94.5303 48.3999 94.5303 47.3622C94.5303 46.3245 94.5664 43.603 94.5664 43.4464C94.5664 43.0939 94.711 40.1766 94.7471 39.8046V38.9236C94.7471 37.553 94.7833 36.5349 96.6988 36.5349C96.8434 36.5349 97.5301 36.5545 97.6385 36.5545C97.8554 36.6915 97.9819 36.8678 98.0722 37.0831C97.9277 42.3108 98.1084 47.4993 98.6144 52.7073C98.9577 56.1728 98.5602 55.977 98.5602 58.1503H95.1628C95.0182 58.1503 94.7291 57.5825 94.7291 57.5825L94.5664 51.4347Z" fill="#133754"/>
<path d="M100.621 56.212L100.837 38.4146C100.874 38.1992 100.892 37.1615 101.271 36.7895C104.614 36.4175 108.192 36.4175 111.554 36.4175C111.825 36.4175 112.439 36.4371 112.475 36.4371L112.909 36.7895V39.3348L112.475 39.6872C110.036 39.6089 108.735 39.6285 106.476 39.883C104.09 40.1179 104.126 41.2535 104.145 42.9374V54.0388C104.325 54.2345 104.903 54.6457 105.193 54.6457H111.012C111.771 54.6457 112.475 55.2527 112.475 55.8988C112.475 56.4666 112.656 57.5826 111.861 57.8371L105.428 58.0329H101.271C100.747 57.6805 100.621 57.3868 100.621 56.8582V56.212Z" fill="#133754"/>
<path d="M114.788 51.4347C114.788 51.2389 114.752 48.3999 114.752 47.3622C114.752 46.3245 114.788 43.603 114.788 43.4464C114.788 43.0939 114.933 40.1766 114.969 39.8046V38.9236C114.969 37.553 115.005 36.5349 116.921 36.5349C117.065 36.5349 117.752 36.5545 117.86 36.5545C118.077 36.6915 118.204 36.8678 118.294 37.0831C118.149 42.3108 118.33 47.4993 118.836 52.7073C119.179 56.1728 118.782 55.977 118.782 58.1503H115.384C115.24 58.1503 114.951 57.5825 114.951 57.5825L114.788 51.4347Z" fill="#133754"/>
<path d="M120.842 57.7588C120.842 51.4151 121.149 45.2085 121.059 38.8845C121.113 38.3167 121.709 37.7684 122.306 37.6314C123.191 37.5726 127.239 37.4356 128.125 37.416H128.739C129.353 37.4356 132.263 37.5726 132.895 37.6314C133.076 37.7684 133.203 37.9447 133.293 38.16C133.293 38.395 133.329 39.6872 133.329 39.9809C133.329 40.4116 133.293 41.7039 133.293 41.7822C133.257 42.3695 132.895 47.1665 132.895 47.793C132.859 48.0084 132.895 49.9075 132.895 50.1425C132.895 50.2404 132.751 50.7494 132.678 50.8473C132.552 52.8248 132.371 56.075 132.462 58.307L132.028 58.679H129.751C129.1 58.679 128.956 57.8763 128.956 57.4651C128.956 54.9785 129.173 52.4724 129.173 49.9859C129.173 49.281 129.136 47.3622 129.136 47.2252C129.1 46.4224 128.992 43.1331 128.92 42.5066C128.829 41.1948 127.908 40.999 126.498 40.999C126.281 40.999 125.667 41.0577 125.649 41.0577L125.215 41.4297C124.854 46.1288 123.498 50.7103 122.92 55.3897C122.92 55.6638 122.775 57.6609 122.703 57.935C122.649 58.4245 122.269 58.8552 121.691 58.8552C121.348 58.8552 121.041 58.6986 120.842 58.4832V57.7588Z" fill="#133754"/>
<path d="M135.155 57.328C135.155 56.6819 135.209 56.2903 135.408 55.6051C135.535 53.7255 135.499 46.4616 135.625 44.1317V43.9163C135.625 43.5639 135.589 40.8032 135.625 40.4508C135.625 39.6676 135.282 37.6118 136.673 37.1811C137.721 37.1615 142.673 37.0244 143.685 37.0244C143.829 37.0244 145.42 37.0048 145.944 37.0048C146.92 37.0048 149.522 36.6524 149.522 38.1209C149.522 38.7278 149.468 40.6466 148.275 40.6466H141.426C140.938 40.6466 140.45 41.0186 140.197 41.371C140.161 41.7822 139.98 43.6813 139.98 44.0729C139.854 47.2643 139.98 49.1635 139.98 52.3353V54.5282C139.98 54.8219 140.414 55.0373 140.812 55.0373L144.751 54.6848C144.787 54.6848 145.094 54.5478 145.149 54.5282L145.366 54.3324V49.2418C145.366 49.0852 145.113 48.7915 144.968 48.7132H144.823C143.685 48.7132 141.86 48.9481 141.86 47.5972C141.86 45.4043 144.01 45.4239 146.088 45.4435H146.757C147.01 45.4435 147.245 45.4239 147.462 45.4239H148.076C149.124 45.4239 149.359 45.9917 149.359 46.814C149.359 48.1258 149.106 49.418 149.106 50.7299C149.106 53.1381 149.558 55.5268 149.558 57.9154C149.558 58.5811 149.07 58.6986 148.365 58.6986C144.263 58.6986 139.926 58.4832 135.824 58.3462C135.282 58.1699 135.155 57.8763 135.155 57.328Z" fill="#133754"/>
<path d="M151.4 57.9546C151.4 57.6805 151.364 56.447 151.364 56.2316C151.364 55.7813 151.4 54.5674 151.4 54.4891C151.4 54.1954 151.617 51.7284 151.617 51.4151C151.653 50.397 151.581 42.0954 151.617 41.0773V40.5878C151.581 39.4131 151.563 37.416 153.262 37.416C153.623 37.416 154.418 37.5531 154.491 37.9838L154.924 39.8047V53.4122C154.924 54.4499 154.96 54.7044 155.936 54.7044C156.388 54.7044 158.051 54.6849 158.051 53.9604V39.9417C158.051 38.6299 158.304 37.6118 159.912 37.6118C161.249 37.6118 161.412 37.9251 161.954 39.0607C161.954 39.7655 161.99 42.9178 161.99 43.6226C161.99 48.5566 161.809 53.5688 161.538 58.5028C161.285 58.8552 160.797 58.8552 160.309 58.8552H159.478C158.43 58.8552 153.659 58.7182 152.629 58.6986C152.141 58.679 151.69 58.307 151.4 57.9546Z" fill="#133754"/>
<path d="M167.899 37.2397H168.206C169.453 37.2397 171.025 37.5139 175.453 37.6509C175.634 37.788 175.76 37.9642 175.85 38.1795C175.85 38.4145 175.887 39.7067 175.887 40.0004C175.887 40.4312 175.85 41.7234 175.85 41.8017C175.598 46.6573 175.182 53.3534 175.019 58.3069L174.586 58.6789H172.29C171.64 58.6789 171.495 57.8762 171.495 57.465C171.495 55.0568 171.676 52.6486 171.712 50.2207H171.26C169.58 50.2207 166.833 50.3186 166.309 50.3186C165.966 52.0024 165.694 53.6862 165.478 55.3896C165.478 55.6637 165.333 57.6608 165.261 57.9349C165.207 58.4244 164.827 58.8552 164.249 58.8552C163.905 58.8552 163.598 58.6985 163.399 58.4831V57.7587C163.399 51.4151 163.707 45.2085 163.616 38.8844C163.49 38.1012 163.887 37.2789 164.755 37.2789C165.207 37.2789 167.411 37.2593 167.899 37.2397ZM171.568 40.6857L167.863 40.8423L167.809 41.4297C167.664 43.231 167.375 44.9931 167.05 46.7552C168.206 46.6965 170.447 46.5594 171.676 46.4811V46.2853C171.568 44.4057 171.513 42.5653 171.568 40.6857Z" fill="#133754"/>
<path d="M190.867 56.1533C190.813 58.3462 190.307 58.5811 187.705 58.6007C187.181 58.6007 182.554 58.5811 181.091 58.5616L180.241 58.542C179.266 58.5028 178.127 58.307 177.82 57.3085L177.802 50.5732L177.856 48.9678C177.964 45.4631 177.729 40.7837 178.145 37.4748C178.145 37.2398 178.976 37.044 179.284 37.0636L190.994 37.4552L190.939 46.2658L189.15 47.4602V47.8322L190.921 48.7524L190.867 56.1533ZM186.837 41.8997C186.873 40.9011 186.422 40.3921 185.355 40.3138C184.416 40.2746 180.982 39.9222 180.946 41.3906V41.4885C181.055 42.7611 181.253 45.6197 181.253 45.6197C181.488 45.8155 181.958 45.8351 182.157 45.8351C183.404 45.8742 184.307 45.8547 185.645 45.7568C186.711 45.1302 186.783 43.5639 186.819 42.3891L186.837 41.8997ZM185.952 50.6516C185.97 49.9271 184.813 49.8684 184.145 49.8488C183.404 49.8292 182.283 49.7901 181.777 50.3383C181.633 51.376 181.615 53.8625 181.579 54.8807L184.723 54.9786C184.976 54.9786 185.608 54.959 185.608 54.959L185.825 54.587L185.952 50.6516Z" fill="#133754"/>
<path d="M197.03 37.2397H197.337C198.584 37.2397 200.156 37.5139 204.584 37.6509C204.764 37.788 204.891 37.9642 204.981 38.1795C204.981 38.4145 205.017 39.7067 205.017 40.0004C205.017 40.4312 204.981 41.7234 204.981 41.8017C204.728 46.6573 204.313 53.3534 204.15 58.3069L203.716 58.6789H201.421C200.771 58.6789 200.626 57.8762 200.626 57.465C200.626 55.0568 200.807 52.6486 200.843 50.2207H200.391C198.711 50.2207 195.964 50.3186 195.44 50.3186C195.096 52.0024 194.825 53.6862 194.608 55.3896C194.608 55.6637 194.464 57.6608 194.392 57.9349C194.337 58.4244 193.958 58.8552 193.38 58.8552C193.036 58.8552 192.729 58.6985 192.53 58.4831V57.7587C192.53 51.4151 192.837 45.2085 192.747 38.8844C192.621 38.1012 193.018 37.2789 193.886 37.2789C194.337 37.2789 196.524 37.2593 197.03 37.2397ZM200.698 40.6857L196.994 40.8423L196.94 41.4297C196.795 43.231 196.506 44.9931 196.181 46.7552C197.337 46.6965 199.578 46.5594 200.807 46.4811V46.2853C200.698 44.4057 200.626 42.5653 200.698 40.6857Z" fill="#133754"/>
<path d="M194.229 21.3608C191.319 22.653 188.084 22.9271 184.976 23.4166C182.049 23.8669 179.121 23.26 176.573 21.6545C172.055 18.8155 163.218 26.3535 162.315 20.6755C161.7 16.838 154.725 16.3681 149.267 17.5233C139.87 19.5203 133.925 23.6124 133.076 26.0794C130.69 33.1279 154.996 23.0642 158.321 29.4274C160.363 33.3237 170.899 26.4318 175.489 26.5689C177.567 26.6276 179.681 26.7646 181.723 27.2346C184.145 27.7828 186.332 27.352 188.5 26.3339C189.982 25.6486 191.41 24.8263 192.855 24.1019C202.505 19.3441 201.981 17.9148 194.229 21.3608ZM159.658 26.3731C158.213 23.0446 140.684 26.3926 143.304 23.1229C144.226 21.9677 145.346 21.5762 152.159 21.2629C156.116 21.0671 160.923 22.4572 160.833 24.3564C160.725 26.4905 168.369 23.9648 171.802 23.397C173.7 23.0838 174.188 24.0823 172.001 24.8263C168.622 26.0011 160.363 27.9981 159.658 26.3731Z" fill="#ED7C00"/>
</g>
<defs>
<clipPath id="clip0_381_695">
<rect width="205" height="67" fill="white"/>
</clipPath>
</defs>
</svg>
