<?xml version="1.0" encoding="utf-8"?>
<!-- Generator: Adobe Illustrator 19.0.0, SVG Export Plug-In . SVG Version: 6.00 Build 0)  -->
<svg version="1.1" id="Camada_1" xmlns="http://www.w3.org/2000/svg" xmlns:xlink="http://www.w3.org/1999/xlink" x="0px" y="0px"
	 viewBox="0 0 50 46" style="enable-background:new 0 0 50 46;" xml:space="preserve">
<style type="text/css">
	.st0{fill:#ED7C00;}
	.st1{fill:#D66446;}
</style>
<g id="XMLID_20_">
	<path d="M11.2,36c-1.1-1.7-2.1-3.5-2.8-5.4C7,26.8,6.8,22.8,9,19.2c1-1.7,2.6-2.9,3.6-4.6c1-1.6,2.2-2.3,3.8-2.5
		c1.6-0.2,3.1-0.2,4.7-0.3c5.3-0.3,9.4,1.9,12.5,6.5c3.4,5,4.1,10.6,2.8,16.5c-0.8,3.6-2.6,6.6-6.2,7.8c-1.6,0.6-3.3,1.2-4.8,2.1
		c-1.8,1-3.6,1.2-5.5,0.9c-1.3-0.2-2.6-0.3-3.9-0.7c-2.2-0.7-4.4-1.6-6.6-2.3c0.1-0.2,0.1-0.4,0.2-0.6c0.3,0.1,0.7,0.2,1,0.3
		c1.2,0.3,2.5,0.8,3.7,0.8c2.6-0.1,5.2-0.3,7.7-0.7c2.4-0.4,4.6-1.6,6.3-3.5c3-3.3,4.2-7.4,3.7-12.1c-0.5-5.1-4-10-9.9-10.2
		c-5.1-0.1-8.8,3.9-8.3,9.1c0,0.5,0.1,1.1,0.1,1.6c-0.2,2.2,0.4,3.8,2.2,4.7c0.8,0.4,2.4,0.5,2.4,0.3c0.4-1.4,1.5-1.1,2.2-1.4
		c1-0.4,1.7-1,1.8-2.3c0-1.2-0.3-2.1-1.5-2.6c-1.5-0.7-1.8-1.5-1.3-3.3c0-0.1,0.1-0.4,0.1-0.4c-0.7-0.7-0.7-1.4,0.1-1.9
		c0.7-0.4,1.5-0.8,2.2-0.8c2.2,0.1,3.7,1.3,4.9,3.2c1.8,2.9,1.6,5.9,0.6,9.1c-0.8,2.3-3.8,4.9-6.1,4.8c-1.8-0.1-3.6-0.3-5.4-0.7
		c-3.9-0.8-6.5-4.9-6.1-9.2c0.1-0.7,0.1-1.4,0.1-2.5c-1.5,1-1.5,2.3-1.4,3.5c0.7,6.5,4.3,9.5,10.2,9.9C16.5,39.4,12.8,38.5,11.2,36z
		 M11.1,22c3.9-8.4,15.6-9.5,20.7-1.7c1.8,2.7,3.5,5.6,2.8,9.3c-0.1,0.3,0.1,0.7,0.1,1c0.2,0,0.3,0.1,0.5,0.1
		c0.2-0.7,0.5-1.3,0.5-1.9c-0.1-2.8-0.7-5.5-2.3-7.9c-2-3-4.2-5.7-7.6-6.6c-4.5-1.3-8.7-0.4-12.3,2.8c-1.3,1.1-2.2,2.6-3.2,4
		c-0.3,0.5-0.4,1.2-0.6,1.8c0.1,0.1,0.3,0.2,0.4,0.3C10.6,22.8,10.9,22.5,11.1,22z"/>
	<path id="XMLID_31_" d="M21.7,10.3c5.6,0.5,10.1,2.9,13.2,8c3,5,3.4,10.5,2.8,16.2c2.4-5.2,2-10.4-0.5-15.3
		C34,12.9,27.6,9.3,21.7,10.3z"/>
	<path id="XMLID_30_" d="M32.5,7c0.7-0.2,1.3-0.1,1.5-0.4c1.5-2,3-4.2,4.4-6.4c-3,0.6-5.4,2.3-7.6,4.5
		c0.3,0.5,0.6,1,1.1,1.8c-2.3-0.7-2.2,1.1-2.5,2.3c-0.2,0.9,0.2,1.8,1.1,2c0.5,0.1,1.4,0.3,1.5,0C32.7,9.7,33.9,8.5,32.5,7z"/>
	<path id="XMLID_29_" d="M42.9,16.2c-1,0.9-2,1.6-2.9,2.4c-1,0.9-0.7,2,0,2.9c0.8,1,1.5,0.2,2.1-0.4
		c0.1-0.1,0.1-0.1,0.2-0.2C44.4,19.2,44.4,19.2,42.9,16.2z"/>
	<path id="XMLID_28_" d="M3.4,9.8c1.1,1.5,2,3.1,3.2,4.5c0.3,0.4,1.1,0.5,1.7,0.5c0.3,0,0.8-0.4,0.9-0.8
		c0.1-0.3-0.2-1-0.5-1.2c-1.7-1.2-3.4-2.2-5.1-3.3C3.5,9.3,3.3,9.6,3.4,9.8z"/>
	<path id="XMLID_27_" d="M19.8,8.2c-0.2-0.8-0.4-1.4-0.4-2c-0.1-1.3-0.7-1.5-1.7-1.1c-0.7,0.3-2,0.1-1.6,1.6
		c0.3,1.5,1.3,2.3,2.5,2C19,8.6,19.4,8.4,19.8,8.2z"/>
	<path id="XMLID_26_" d="M50,17c-0.8-0.3-1.6-0.6-2.5-0.9c-0.2,0.5-0.3,0.9-0.6,1.4c-0.7-1.1-1.2-2.2-2.6-1.4
		c0.3,0.9,0.6,1.9,0.8,2.7c1.7-0.5,3.3-0.9,4.8-1.4C50,17.3,50,17.2,50,17z"/>
	<path id="XMLID_25_" d="M15.6,4.6c1.2-0.2,2-0.4,3.1-0.5c-0.6-1.4-1.1-2.6-1.6-3.8c-0.2,0-0.4,0.1-0.7,0.1
		C16.1,1.7,15.9,3,15.6,4.6z"/>
	<path id="XMLID_24_" d="M6.4,28.2c-0.3,2.3,0.1,4.5,2,6.3C7.7,32.2,7,30.2,6.4,28.2z"/>
	<path id="XMLID_23_" d="M0.1,22.1c1.2,0.7,2.3,1.4,3.5,2c0.4,0.2,0.9-0.1,1.3-0.3c0.2-0.1,0.5-0.6,0.4-0.9
		c0-0.3-0.4-0.6-0.7-0.7c-1.5-0.2-3-0.4-4.5-0.5C0,21.7-0.1,22,0.1,22.1z"/>
</g>
</svg>
