<?xml version="1.0" encoding="utf-8"?>
<!-- Generator: Adobe Illustrator 19.0.0, SVG Export Plug-In . SVG Version: 6.00 Build 0)  -->
<svg version="1.1" id="Camada_1" xmlns="http://www.w3.org/2000/svg" xmlns:xlink="http://www.w3.org/1999/xlink" x="0px" y="0px"
	 viewBox="-946.5 -9 75 68" style="enable-background:new -946.5 -9 75 68;" xml:space="preserve">
<g id="XMLID_40_">
	<path d="M-929.7,44.5c-1.6-2.5-3.1-5.2-4.2-8.1c-2.1-5.7-2.4-11.7,0.9-17c1.5-2.5,3.9-4.3,5.4-6.9c1.5-2.4,3.3-3.4,5.7-3.7
		c2.4-0.3,4.6-0.3,7-0.4c7.9-0.4,14.1,2.8,18.7,9.7c5.1,7.5,6.1,15.8,4.2,24.6c-1.2,5.4-3.9,9.9-9.3,11.7c-2.4,0.9-4.9,1.8-7.2,3.1
		c-2.7,1.5-5.4,1.8-8.2,1.3c-1.9-0.3-3.9-0.4-5.8-1c-3.3-1-6.6-2.4-9.9-3.4c0.1-0.3,0.1-0.6,0.3-0.9c0.4,0.1,1,0.3,1.5,0.4
		c1.8,0.4,3.7,1.2,5.5,1.2c3.9-0.1,7.8-0.4,11.5-1c3.6-0.6,6.9-2.4,9.4-5.2c4.5-4.9,6.3-11.1,5.5-18.1c-0.7-7.6-6-14.9-14.8-15.2
		c-7.6-0.1-13.2,5.8-12.4,13.6c0,0.7,0.1,1.6,0.1,2.4c-0.3,3.3,0.6,5.7,3.3,7c1.2,0.6,3.6,0.7,3.6,0.4c0.6-2.1,2.2-1.6,3.3-2.1
		c1.5-0.6,2.5-1.5,2.7-3.4c0-1.8-0.4-3.1-2.2-3.9c-2.2-1-2.7-2.2-1.9-4.9c0-0.1,0.1-0.6,0.1-0.6c-1-1-1-2.1,0.1-2.8
		c1-0.6,2.2-1.2,3.3-1.2c3.3,0.1,5.5,1.9,7.3,4.8c2.7,4.3,2.4,8.8,0.9,13.6c-1.2,3.4-5.7,7.3-9.1,7.2c-2.7-0.1-5.4-0.4-8.1-1
		c-5.8-1.2-9.7-7.3-9.1-13.7c0.1-1,0.1-2.1,0.1-3.7c-2.2,1.5-2.2,3.4-2.1,5.2c1,9.7,6.4,14.2,15.3,14.8
		C-921.7,49.5-927.3,48.2-929.7,44.5z M-929.8,23.6c5.8-12.5,23.4-14.2,31-2.5c2.7,4,5.2,8.4,4.2,13.9c-0.1,0.4,0.1,1,0.1,1.5
		c0.3,0,0.4,0.1,0.7,0.1c0.3-1,0.7-1.9,0.7-2.8c-0.1-4.2-1-8.2-3.4-11.8c-3-4.5-6.3-8.5-11.4-9.9c-6.7-1.9-13-0.6-18.4,4.2
		c-1.9,1.6-3.3,3.9-4.8,6c-0.4,0.7-0.6,1.8-0.9,2.7c0.1,0.1,0.4,0.3,0.6,0.4C-930.6,24.8-930.1,24.3-929.8,23.6z"/>
	<path id="XMLID_49_" d="M-913.9,6.1c8.4,0.7,15.1,4.3,19.8,11.9c4.5,7.5,5.1,15.7,4.2,24.2c3.6-7.8,3-15.5-0.7-22.9
		C-895.5,10-905.1,4.6-913.9,6.1z"/>
	<path id="XMLID_48_" d="M-897.7,1.2c1-0.3,1.9-0.1,2.2-0.6c2.2-3,4.5-6.3,6.6-9.6c-4.5,0.9-8.1,3.4-11.4,6.7
		c0.4,0.7,0.9,1.5,1.6,2.7c-3.4-1-3.3,1.6-3.7,3.4c-0.3,1.3,0.3,2.7,1.6,3c0.7,0.1,2.1,0.4,2.2,0C-897.4,5.2-895.6,3.4-897.7,1.2z"
		/>
	<path id="XMLID_47_" d="M-882.1,14.9c-1.5,1.3-3,2.4-4.3,3.6c-1.5,1.3-1,3,0,4.3c1.2,1.5,2.2,0.3,3.1-0.6c0.1-0.1,0.1-0.1,0.3-0.3
		C-879.9,19.4-879.9,19.4-882.1,14.9z"/>
	<path id="XMLID_46_" d="M-941.4,5.3c1.6,2.2,3,4.6,4.8,6.7c0.4,0.6,1.6,0.7,2.5,0.7c0.4,0,1.2-0.6,1.3-1.2c0.1-0.4-0.3-1.5-0.7-1.8
		c-2.5-1.8-5.1-3.3-7.6-4.9C-941.2,4.6-941.5,5-941.4,5.3z"/>
	<path id="XMLID_45_" d="M-916.8,2.9c-0.3-1.2-0.6-2.1-0.6-3c-0.1-1.9-1-2.2-2.5-1.6c-1,0.4-3,0.1-2.4,2.4c0.4,2.2,1.9,3.4,3.7,3
		C-918,3.5-917.4,3.2-916.8,2.9z"/>
	<path id="XMLID_44_" d="M-871.5,16.1c-1.2-0.4-2.4-0.9-3.7-1.3c-0.3,0.7-0.4,1.3-0.9,2.1c-1-1.6-1.8-3.3-3.9-2.1
		c0.4,1.3,0.9,2.8,1.2,4c2.5-0.7,4.9-1.3,7.2-2.1C-871.5,16.5-871.5,16.4-871.5,16.1z"/>
	<path id="XMLID_43_" d="M-923.1-2.4c1.8-0.3,3-0.6,4.6-0.7c-0.9-2.1-1.6-3.9-2.4-5.7c-0.3,0-0.6,0.1-1,0.1
		C-922.3-6.8-922.6-4.8-923.1-2.4z"/>
	<path id="XMLID_42_" d="M-936.9,32.8c-0.4,3.4,0.1,6.7,3,9.4C-934.9,38.8-936,35.8-936.9,32.8z"/>
	<path id="XMLID_41_" d="M-946.3,23.7c1.8,1,3.4,2.1,5.2,3c0.6,0.3,1.3-0.1,1.9-0.4c0.3-0.1,0.7-0.9,0.6-1.3c0-0.4-0.6-0.9-1-1
		c-2.2-0.3-4.5-0.6-6.7-0.7C-946.5,23.1-946.6,23.6-946.3,23.7z"/>
</g>
</svg>
