<?xml version="1.0" encoding="utf-8"?>
<!-- Generator: Adobe Illustrator 19.0.0, SVG Export Plug-In . SVG Version: 6.00 Build 0)  -->
<svg version="1.1" xmlns="http://www.w3.org/2000/svg" xmlns:xlink="http://www.w3.org/1999/xlink" x="0px" y="0px"
	 viewBox="0 0 330 135" style="enable-background:new 0 0 330 135;" xml:space="preserve">
<style type="text/css">
	.st0{clip-path:url(#SVGID_2_);fill:#56819A;}
	.st1{clip-path:url(#SVGID_4_);}
	.st2{fill:#425379;}
	.st3{clip-path:url(#SVGID_6_);}
	.st4{clip-path:url(#SVGID_8_);}
	.st5{clip-path:url(#SVGID_10_);}
	.st6{fill:#56819A;}
	.st7{clip-path:url(#SVGID_12_);}
	.st8{clip-path:url(#SVGID_14_);}
	.st9{clip-path:url(#SVGID_16_);}
	.st10{clip-path:url(#SVGID_18_);}
	.st11{clip-path:url(#SVGID_20_);}
	.st12{clip-path:url(#SVGID_22_);}
	.st13{clip-path:url(#SVGID_24_);}
	.st14{clip-path:url(#SVGID_26_);}
	.st15{clip-path:url(#SVGID_28_);fill:#F3D056;}
	.st16{clip-path:url(#SVGID_30_);}
	.st17{fill:#E59F4D;}
	.st18{clip-path:url(#SVGID_32_);}
	.st19{clip-path:url(#SVGID_34_);}
	.st20{clip-path:url(#SVGID_36_);}
	.st21{clip-path:url(#SVGID_38_);}
	.st22{fill:#FAFBFD;}
	.st23{fill:#2B3248;}
	.st24{fill:#FFFFFF;}
	.st25{fill:#96D4DF;}
	.st26{clip-path:url(#SVGID_40_);fill:#1CBBD5;}
	.st27{clip-path:url(#SVGID_40_);}
	.st28{fill:#FCFCFF;}
	.st29{fill:#021E4B;}
	.st30{fill:#0A4681;}
	.st31{fill:#57BBC9;}
</style>
<g id="Camada_3">
	<g>
		<g id="XMLID_29_">
			<g id="XMLID_128_">
				<g id="XMLID_226_">
					<g>
						<defs>
							<path id="SVGID_1_" d="M323.4,35.2c-2.7-1.9-10.9,2.8-11.8,5.6c-1.2,3.7,4.1,8,6.8,9.4c1.8,1,4.4,1.3,5.8-0.8
								s0.7-6.2,0.8-8.6C325,39,325.1,36.5,323.4,35.2z M321.4,38.2C321.6,38.1,321.5,38.2,321.4,38.2L321.4,38.2z"/>
						</defs>
						<clipPath id="SVGID_2_">
							<use xlink:href="#SVGID_1_"  style="overflow:visible;"/>
						</clipPath>
						<path id="XMLID_251_" class="st0" d="M323.4,35.2c-2.7-1.9-10.9,2.8-11.8,5.6c-1.2,3.7,4.1,8,6.8,9.4c1.8,1,4.4,1.3,5.8-0.8
							s0.7-6.2,0.8-8.6C325,39,325.1,36.5,323.4,35.2z M321.4,38.2C321.6,38.1,321.5,38.2,321.4,38.2L321.4,38.2z"/>
					</g>
					<g>
						<defs>
							<path id="SVGID_3_" d="M323.4,35.2c-2.7-1.9-10.9,2.8-11.8,5.6c-1.2,3.7,4.1,8,6.8,9.4c1.8,1,4.4,1.3,5.8-0.8
								s0.7-6.2,0.8-8.6C325,39,325.1,36.5,323.4,35.2z M321.4,38.2C321.6,38.1,321.5,38.2,321.4,38.2L321.4,38.2z"/>
						</defs>
						<clipPath id="SVGID_4_">
							<use xlink:href="#SVGID_3_"  style="overflow:visible;"/>
						</clipPath>
						<g id="XMLID_244_" class="st1">
							<g id="XMLID_642_">
								<path id="XMLID_651_" class="st2" d="M315,40.9c1.7-0.7,3.4-1.2,5.2-1.6c1.8-0.3,3.7-0.3,5.4-0.7c0.6-0.1,0.7-1.2,0-1.3
									c-3.6-0.7-7.8,1-11.1,2.6C314,40.2,314.4,41.1,315,40.9L315,40.9z"/>
							</g>
						</g>
					</g>
					<g>
						<defs>
							<path id="SVGID_5_" d="M323.4,35.2c-2.7-1.9-10.9,2.8-11.8,5.6c-1.2,3.7,4.1,8,6.8,9.4c1.8,1,4.4,1.3,5.8-0.8
								s0.7-6.2,0.8-8.6C325,39,325.1,36.5,323.4,35.2z M321.4,38.2C321.6,38.1,321.5,38.2,321.4,38.2L321.4,38.2z"/>
						</defs>
						<clipPath id="SVGID_6_">
							<use xlink:href="#SVGID_5_"  style="overflow:visible;"/>
						</clipPath>
						<g id="XMLID_237_" class="st3">
							<g id="XMLID_635_">
								<path id="XMLID_640_" class="st2" d="M313.5,43.9c2-0.5,4.1,0,6.2,0c2,0,4.3,0,6.1-0.8c0.7-0.3,0.8-1.2,0-1.5
									c-2.2-0.9-4.7-0.3-7-0.1c-1.9,0.1-3.9,0.1-5.7,0.7C312,42.6,312.4,44.2,313.5,43.9L313.5,43.9z"/>
							</g>
						</g>
					</g>
					<g>
						<defs>
							<path id="SVGID_7_" d="M323.4,35.2c-2.7-1.9-10.9,2.8-11.8,5.6c-1.2,3.7,4.1,8,6.8,9.4c1.8,1,4.4,1.3,5.8-0.8
								s0.7-6.2,0.8-8.6C325,39,325.1,36.5,323.4,35.2z M321.4,38.2C321.6,38.1,321.5,38.2,321.4,38.2L321.4,38.2z"/>
						</defs>
						<clipPath id="SVGID_8_">
							<use xlink:href="#SVGID_7_"  style="overflow:visible;"/>
						</clipPath>
						<g id="XMLID_230_" class="st4">
							<g id="XMLID_624_">
								<path id="XMLID_633_" class="st2" d="M313,45.3c3.8,2.7,11,6,15.6,3.8c0.6-0.3,0.6-1.3,0-1.6c-2.1-1.1-4.7-0.8-7-1.3
									c-2.6-0.5-5.3-1.4-7.6-2.7C312.8,42.9,311.9,44.5,313,45.3L313,45.3z"/>
							</g>
						</g>
					</g>
				</g>
				<g id="XMLID_193_">
					<g>
						<defs>
							<path id="SVGID_9_" d="M278.5,20.8c0.3-0.8,2.2-1.1,2.9-1.3c1.5-0.4,2.9-0.7,4.4-1.2c3.4-1.2,7.7-2.3,10.6-0.4
								c2.1,1.4,3.6,4.6,4.7,6.8c1.5,3,1.9,6,2.6,8.9c1.3,5.1,8.6,3.7,8.8-1.2c0.2-4.4-2.6-9.5-4.8-13.2c-2.2-3.6-5.3-7.8-9.5-9.2
								c-2.8-0.9-5.6-0.8-8.4-0.4c-3,0.5-5.3,2.1-8,3.2c-3.3,1.3-7.7,3.7-7,7.9C275.1,22.9,277.9,22.4,278.5,20.8L278.5,20.8z"/>
						</defs>
						<clipPath id="SVGID_10_">
							<use xlink:href="#SVGID_9_"  style="overflow:visible;"/>
						</clipPath>
						<g id="XMLID_224_" class="st5">
							<path id="XMLID_225_" class="st6" d="M278.5,20.8c0.3-0.8,2.2-1.1,2.9-1.3c1.5-0.4,2.9-0.7,4.4-1.2c3.4-1.2,7.7-2.3,10.6-0.4
								c2.1,1.4,3.6,4.6,4.7,6.8c1.5,3,1.9,6,2.6,8.9c1.3,5.1,8.6,3.7,8.8-1.2c0.2-4.4-2.6-9.5-4.8-13.2c-2.2-3.6-5.3-7.8-9.5-9.2
								c-2.8-0.9-5.6-0.8-8.4-0.4c-3,0.5-5.3,2.1-8,3.2c-3.3,1.3-7.7,3.7-7,7.9C275.1,22.9,277.9,22.4,278.5,20.8L278.5,20.8z"/>
						</g>
					</g>
					<g>
						<defs>
							<path id="SVGID_11_" d="M278.5,20.8c0.3-0.8,2.2-1.1,2.9-1.3c1.5-0.4,2.9-0.7,4.4-1.2c3.4-1.2,7.7-2.3,10.6-0.4
								c2.1,1.4,3.6,4.6,4.7,6.8c1.5,3,1.9,6,2.6,8.9c1.3,5.1,8.6,3.7,8.8-1.2c0.2-4.4-2.6-9.5-4.8-13.2c-2.2-3.6-5.3-7.8-9.5-9.2
								c-2.8-0.9-5.6-0.8-8.4-0.4c-3,0.5-5.3,2.1-8,3.2c-3.3,1.3-7.7,3.7-7,7.9C275.1,22.9,277.9,22.4,278.5,20.8L278.5,20.8z"/>
						</defs>
						<clipPath id="SVGID_12_">
							<use xlink:href="#SVGID_11_"  style="overflow:visible;"/>
						</clipPath>
						<g id="XMLID_217_" class="st7">
							<g id="XMLID_617_">
								<path id="XMLID_622_" class="st2" d="M281,17.5c0.6-1.9,2.9-2.8,4.5-3.7c2-1.1,4-2,6.2-2.6c2.2-0.7,4.5-1.1,6.8-1.2
									c2-0.1,3.9,0.1,5.9-0.2c1-0.2,1-1.9,0-2c-5.2-0.8-10.8,0.3-15.7,2.3c-3.1,1.3-8,3.6-9.1,7.1C279.2,18,280.7,18.4,281,17.5
									L281,17.5z"/>
							</g>
						</g>
					</g>
					<g>
						<defs>
							<path id="SVGID_13_" d="M278.5,20.8c0.3-0.8,2.2-1.1,2.9-1.3c1.5-0.4,2.9-0.7,4.4-1.2c3.4-1.2,7.7-2.3,10.6-0.4
								c2.1,1.4,3.6,4.6,4.7,6.8c1.5,3,1.9,6,2.6,8.9c1.3,5.1,8.6,3.7,8.8-1.2c0.2-4.4-2.6-9.5-4.8-13.2c-2.2-3.6-5.3-7.8-9.5-9.2
								c-2.8-0.9-5.6-0.8-8.4-0.4c-3,0.5-5.3,2.1-8,3.2c-3.3,1.3-7.7,3.7-7,7.9C275.1,22.9,277.9,22.4,278.5,20.8L278.5,20.8z"/>
						</defs>
						<clipPath id="SVGID_14_">
							<use xlink:href="#SVGID_13_"  style="overflow:visible;"/>
						</clipPath>
						<g id="XMLID_210_" class="st8">
							<g id="XMLID_600_">
								<path id="XMLID_615_" class="st2" d="M286,18.4c5.5-5.6,15.6-8.2,23.1-7.2c1.1,0.2,1.2-1.4,0.5-1.9
									c-1.6-1.2-4.2-0.7-6.1-0.6c-2.6,0.2-5,0.8-7.5,1.6c-4.1,1.5-8.5,3.5-11.4,6.7C283.8,18,285.1,19.3,286,18.4L286,18.4z"/>
							</g>
						</g>
					</g>
					<g>
						<defs>
							<path id="SVGID_15_" d="M278.5,20.8c0.3-0.8,2.2-1.1,2.9-1.3c1.5-0.4,2.9-0.7,4.4-1.2c3.4-1.2,7.7-2.3,10.6-0.4
								c2.1,1.4,3.6,4.6,4.7,6.8c1.5,3,1.9,6,2.6,8.9c1.3,5.1,8.6,3.7,8.8-1.2c0.2-4.4-2.6-9.5-4.8-13.2c-2.2-3.6-5.3-7.8-9.5-9.2
								c-2.8-0.9-5.6-0.8-8.4-0.4c-3,0.5-5.3,2.1-8,3.2c-3.3,1.3-7.7,3.7-7,7.9C275.1,22.9,277.9,22.4,278.5,20.8L278.5,20.8z"/>
						</defs>
						<clipPath id="SVGID_16_">
							<use xlink:href="#SVGID_15_"  style="overflow:visible;"/>
						</clipPath>
						<g id="XMLID_203_" class="st9">
							<g id="XMLID_593_">
								<path id="XMLID_598_" class="st2" d="M291.6,20.9c6.3-4.4,14.4-7.7,22-5.6c1.7,0.5,2.5-2.2,0.7-2.7
									c-8.5-2.4-17.2,1.4-23.8,6.5C289.5,19.9,290.5,21.6,291.6,20.9L291.6,20.9z"/>
							</g>
						</g>
					</g>
					<g>
						<defs>
							<path id="SVGID_17_" d="M278.5,20.8c0.3-0.8,2.2-1.1,2.9-1.3c1.5-0.4,2.9-0.7,4.4-1.2c3.4-1.2,7.7-2.3,10.6-0.4
								c2.1,1.4,3.6,4.6,4.7,6.8c1.5,3,1.9,6,2.6,8.9c1.3,5.1,8.6,3.7,8.8-1.2c0.2-4.4-2.6-9.5-4.8-13.2c-2.2-3.6-5.3-7.8-9.5-9.2
								c-2.8-0.9-5.6-0.8-8.4-0.4c-3,0.5-5.3,2.1-8,3.2c-3.3,1.3-7.7,3.7-7,7.9C275.1,22.9,277.9,22.4,278.5,20.8L278.5,20.8z"/>
						</defs>
						<clipPath id="SVGID_18_">
							<use xlink:href="#SVGID_17_"  style="overflow:visible;"/>
						</clipPath>
						<g id="XMLID_196_" class="st10">
							<g id="XMLID_586_">
								<path id="XMLID_591_" class="st2" d="M295.3,23.1c3.1-0.4,5.9-1.5,9-1.5c3.3,0,5.6,1.7,8.6,2.5c1.7,0.5,2.3-2,0.7-2.6
									c-3.1-1.2-5.5-2.7-8.9-2.6c-3.5,0.1-6.4,1.6-9.7,2.3C293.9,21.4,294.2,23.3,295.3,23.1L295.3,23.1z"/>
							</g>
						</g>
					</g>
				</g>
				<g id="XMLID_167_">
					<g>
						<defs>
							<path id="SVGID_19_" d="M274,54.3c4,6.7,14.4,6.4,21.1,5.4c5.8-0.9,13.5-4.9,15.7-10.7c2.1-5.5-6.2-8.4-9.1-3.8
								c-0.7,1.1-1.9,1.9-3.5,2.9c-2,1.2-3.6,1.9-5.6,2.5c-2.9,0.8-5.8,0.8-8.7,0.8c-2.9,0-5.6-0.6-8.5-0.2
								C273.9,51.3,273.4,53.2,274,54.3L274,54.3z"/>
						</defs>
						<clipPath id="SVGID_20_">
							<use xlink:href="#SVGID_19_"  style="overflow:visible;"/>
						</clipPath>
						<g id="XMLID_191_" class="st11">
							<path id="XMLID_192_" class="st6" d="M274,54.3c4,6.7,14.4,6.4,21.1,5.4c5.8-0.9,13.5-4.9,15.7-10.7c2.1-5.5-6.2-8.4-9.1-3.8
								c-0.7,1.1-1.9,1.9-3.5,2.9c-2,1.2-3.6,1.9-5.6,2.5c-2.9,0.8-5.8,0.8-8.7,0.8c-2.9,0-5.6-0.6-8.5-0.2
								C273.9,51.3,273.4,53.2,274,54.3L274,54.3z"/>
						</g>
					</g>
					<g>
						<defs>
							<path id="SVGID_21_" d="M274,54.3c4,6.7,14.4,6.4,21.1,5.4c5.8-0.9,13.5-4.9,15.7-10.7c2.1-5.5-6.2-8.4-9.1-3.8
								c-0.7,1.1-1.9,1.9-3.5,2.9c-2,1.2-3.6,1.9-5.6,2.5c-2.9,0.8-5.8,0.8-8.7,0.8c-2.9,0-5.6-0.6-8.5-0.2
								C273.9,51.3,273.4,53.2,274,54.3L274,54.3z"/>
						</defs>
						<clipPath id="SVGID_22_">
							<use xlink:href="#SVGID_21_"  style="overflow:visible;"/>
						</clipPath>
						<g id="XMLID_184_" class="st12">
							<g id="XMLID_579_">
								<path id="XMLID_584_" class="st2" d="M280.8,51.3c0.6,4.1,4.8,6.2,8,7.9c4.3,2.3,10.7,4.8,15.5,2.6c0.6-0.3,0.2-1-0.3-1.1
									c-2.6-0.3-5.1,0-7.6-0.6c-2.3-0.5-4.5-1.4-6.7-2.4c-3-1.4-7.4-3.1-8-6.7C281.6,50.5,280.8,50.7,280.8,51.3L280.8,51.3z"/>
							</g>
						</g>
					</g>
					<g>
						<defs>
							<path id="SVGID_23_" d="M274,54.3c4,6.7,14.4,6.4,21.1,5.4c5.8-0.9,13.5-4.9,15.7-10.7c2.1-5.5-6.2-8.4-9.1-3.8
								c-0.7,1.1-1.9,1.9-3.5,2.9c-2,1.2-3.6,1.9-5.6,2.5c-2.9,0.8-5.8,0.8-8.7,0.8c-2.9,0-5.6-0.6-8.5-0.2
								C273.9,51.3,273.4,53.2,274,54.3L274,54.3z"/>
						</defs>
						<clipPath id="SVGID_24_">
							<use xlink:href="#SVGID_23_"  style="overflow:visible;"/>
						</clipPath>
						<g id="XMLID_177_" class="st13">
							<g id="XMLID_528_">
								<path id="XMLID_577_" class="st2" d="M284.1,49.8c1.1,4,5.5,6,9.1,7.3c5.4,2,13,3.7,18.6,1.7c0.5-0.2,0.6-1,0-1.1
									c-2.4-0.5-4.9-0.3-7.4-0.5c-3.1-0.2-6.1-0.7-9.1-1.5c-3.5-1-8.9-2.3-10.1-6.2C285,48.7,283.9,49.1,284.1,49.8L284.1,49.8z"
									/>
							</g>
						</g>
					</g>
					<g>
						<defs>
							<path id="SVGID_25_" d="M274,54.3c4,6.7,14.4,6.4,21.1,5.4c5.8-0.9,13.5-4.9,15.7-10.7c2.1-5.5-6.2-8.4-9.1-3.8
								c-0.7,1.1-1.9,1.9-3.5,2.9c-2,1.2-3.6,1.9-5.6,2.5c-2.9,0.8-5.8,0.8-8.7,0.8c-2.9,0-5.6-0.6-8.5-0.2
								C273.9,51.3,273.4,53.2,274,54.3L274,54.3z"/>
						</defs>
						<clipPath id="SVGID_26_">
							<use xlink:href="#SVGID_25_"  style="overflow:visible;"/>
						</clipPath>
						<g id="XMLID_170_" class="st14">
							<g id="XMLID_521_">
								<path id="XMLID_526_" class="st2" d="M292.5,49.6c0.7,3.2,5.5,4.3,8.1,5.1c4.9,1.4,12.1,2.1,16.6-0.8
									c0.5-0.4,0.3-1.2-0.3-1.2c-2.3,0-4.6,0.6-6.9,0.7c-2.7,0.2-5.3,0.1-7.9-0.5c-2.2-0.4-7.6-1.1-8.3-3.6
									C293.5,48.5,292.3,48.8,292.5,49.6L292.5,49.6z"/>
							</g>
						</g>
					</g>
				</g>
				<g id="XMLID_129_">
					<g>
						<defs>
							<path id="SVGID_27_" d="M315.6,44.7c1.2-5-2.7-11.9-4.7-15.8c-2.7-5.1-6.8-9.5-12.4-11.9c-9.7-4.1-22.4-2.6-30.9,3.2
								c-4.4,3-8.4,7.9-8.7,13.3c-0.2,2.8,0.9,6,2.8,8.1c1.2,1.3,4.2,2.4,5.9,1.4c0.6,3.4-6.9,4.6-7,4.3c0.5,5.6,7.6,9,12.4,10
								c8.3,1.7,14.6-1.8,22.3-4.2c5.2-1.6,12.9-1.4,17.4-4.3C314.3,47.7,315.2,46.3,315.6,44.7z"/>
						</defs>
						<clipPath id="SVGID_28_">
							<use xlink:href="#SVGID_27_"  style="overflow:visible;"/>
						</clipPath>
						<path id="XMLID_165_" class="st15" d="M315.6,44.7c1.2-5-2.7-11.9-4.7-15.8c-2.7-5.1-6.8-9.5-12.4-11.9
							c-9.7-4.1-22.4-2.6-30.9,3.2c-4.4,3-8.4,7.9-8.7,13.3c-0.2,2.8,0.9,6,2.8,8.1c1.2,1.3,4.2,2.4,5.9,1.4c0.6,3.4-6.9,4.6-7,4.3
							c0.5,5.6,7.6,9,12.4,10c8.3,1.7,14.6-1.8,22.3-4.2c5.2-1.6,12.9-1.4,17.4-4.3C314.3,47.7,315.2,46.3,315.6,44.7z"/>
					</g>
					<g>
						<defs>
							<path id="SVGID_29_" d="M315.6,44.7c1.2-5-2.7-11.9-4.7-15.8c-2.7-5.1-6.8-9.5-12.4-11.9c-9.7-4.1-22.4-2.6-30.9,3.2
								c-4.4,3-8.4,7.9-8.7,13.3c-0.2,2.8,0.9,6,2.8,8.1c1.2,1.3,4.2,2.4,5.9,1.4c0.6,3.4-6.9,4.6-7,4.3c0.5,5.6,7.6,9,12.4,10
								c8.3,1.7,14.6-1.8,22.3-4.2c5.2-1.6,12.9-1.4,17.4-4.3C314.3,47.7,315.2,46.3,315.6,44.7z"/>
						</defs>
						<clipPath id="SVGID_30_">
							<use xlink:href="#SVGID_29_"  style="overflow:visible;"/>
						</clipPath>
						<g id="XMLID_158_" class="st16">
							<g id="XMLID_506_">
								<path id="XMLID_519_" class="st17" d="M270.5,35.6c3.1-2.3,7.8-3.4,11.6-2.9c3.4,0.4,6.7,1.6,10.1,0.4
									c7.4-2.5,10.5-12.6,19.7-7.8c3.9,2,7.2-3.7,3.4-5.9c-3.7-2.1-8.3-2.5-12.4-1.4c-4.1,1.2-6.7,4.6-9.7,7.3
									c-4.4,3.9-9.1,1.1-14.2,1.7c-4.3,0.5-7.8,2.6-10.7,5.6C266.8,34.1,268.7,36.9,270.5,35.6L270.5,35.6z"/>
							</g>
						</g>
					</g>
					<g>
						<defs>
							<path id="SVGID_31_" d="M315.6,44.7c1.2-5-2.7-11.9-4.7-15.8c-2.7-5.1-6.8-9.5-12.4-11.9c-9.7-4.1-22.4-2.6-30.9,3.2
								c-4.4,3-8.4,7.9-8.7,13.3c-0.2,2.8,0.9,6,2.8,8.1c1.2,1.3,4.2,2.4,5.9,1.4c0.6,3.4-6.9,4.6-7,4.3c0.5,5.6,7.6,9,12.4,10
								c8.3,1.7,14.6-1.8,22.3-4.2c5.2-1.6,12.9-1.4,17.4-4.3C314.3,47.7,315.2,46.3,315.6,44.7z"/>
						</defs>
						<clipPath id="SVGID_32_">
							<use xlink:href="#SVGID_31_"  style="overflow:visible;"/>
						</clipPath>
						<g id="XMLID_151_" class="st18">
							<g id="XMLID_499_">
								<path id="XMLID_504_" class="st17" d="M269.4,35.7c1.2,2,2.3,2.1,4.6,2.2c2.9,0.2,5.1,1.2,7.5,2.9c4,2.8,7.2,5.2,12.4,4.6
									c2.5-0.3,5.3-1.7,7.8-1.4c2.7,0.4,3.4,3,5.2,4.6c3.4,3,9.2,2.6,12.7,0c3.4-2.6,1.7-9-3.1-7.4c-0.9,0.3-3.2,1-4.2,0.6
									c-0.3-0.1-1.5-2-1.7-2.2c-1.7-1.7-3.5-2.8-5.8-3.4c-5.2-1.1-10.6,3-15.4,1c-4.3-1.8-7.3-4.8-12.1-5.3
									C275.7,31.7,267.2,31.9,269.4,35.7L269.4,35.7z"/>
							</g>
						</g>
					</g>
					<g>
						<defs>
							<path id="SVGID_33_" d="M315.6,44.7c1.2-5-2.7-11.9-4.7-15.8c-2.7-5.1-6.8-9.5-12.4-11.9c-9.7-4.1-22.4-2.6-30.9,3.2
								c-4.4,3-8.4,7.9-8.7,13.3c-0.2,2.8,0.9,6,2.8,8.1c1.2,1.3,4.2,2.4,5.9,1.4c0.6,3.4-6.9,4.6-7,4.3c0.5,5.6,7.6,9,12.4,10
								c8.3,1.7,14.6-1.8,22.3-4.2c5.2-1.6,12.9-1.4,17.4-4.3C314.3,47.7,315.2,46.3,315.6,44.7z"/>
						</defs>
						<clipPath id="SVGID_34_">
							<use xlink:href="#SVGID_33_"  style="overflow:visible;"/>
						</clipPath>
						<g id="XMLID_144_" class="st19">
							<g id="XMLID_492_">
								<path id="XMLID_497_" class="st17" d="M269.7,34.3c-1.1,3.3-0.7,6.2,2.1,8.6c2.8,2.4,6.5,2.3,9.5,4c2.2,1.2,3.1,2.5,3.6,4.7
									c0.4,1.7,0.5,3.3,1.5,4.8c2.3,3.3,6.8,5.3,10.5,6.6c4.5,1.6,6.4-5.5,2-7.1c-1.7-0.6-3.8-1.5-5.2-2.7c-1.6-1.5-1.1-2-1.4-4.1
									c-0.3-3-1.9-4.8-4.2-6.7c-2.2-1.8-4.3-2.9-7-3.7c-3-0.9-5.6-1-6.6-4.4C273.8,31.9,270.4,32,269.7,34.3L269.7,34.3z"/>
							</g>
						</g>
					</g>
					<g>
						<defs>
							<path id="SVGID_35_" d="M315.6,44.7c1.2-5-2.7-11.9-4.7-15.8c-2.7-5.1-6.8-9.5-12.4-11.9c-9.7-4.1-22.4-2.6-30.9,3.2
								c-4.4,3-8.4,7.9-8.7,13.3c-0.2,2.8,0.9,6,2.8,8.1c1.2,1.3,4.2,2.4,5.9,1.4c0.6,3.4-6.9,4.6-7,4.3c0.5,5.6,7.6,9,12.4,10
								c8.3,1.7,14.6-1.8,22.3-4.2c5.2-1.6,12.9-1.4,17.4-4.3C314.3,47.7,315.2,46.3,315.6,44.7z"/>
						</defs>
						<clipPath id="SVGID_36_">
							<use xlink:href="#SVGID_35_"  style="overflow:visible;"/>
						</clipPath>
						<g id="XMLID_137_" class="st20">
							<g id="XMLID_485_">
								<path id="XMLID_490_" class="st17" d="M271.8,33.5c1.8-3.3,5.2-6.7,8.6-8.4c3-1.6,6.4-1.6,9.6-2.7c4.3-1.6,11.1-7.7,10-12.7
									c-0.2-0.7-0.8-1.4-1.5-1.5c-3.4-0.7-4.8,1-7,3.5c-1.9,2.1-3.2,3.8-5.9,4.9c-1.6,0.6-3.3,0.9-4.9,1.5
									c-6.4,2.6-10.2,7.6-12.5,13.9C267.3,34.1,270.7,35.4,271.8,33.5L271.8,33.5z"/>
							</g>
						</g>
					</g>
					<g>
						<defs>
							<path id="SVGID_37_" d="M315.6,44.7c1.2-5-2.7-11.9-4.7-15.8c-2.7-5.1-6.8-9.5-12.4-11.9c-9.7-4.1-22.4-2.6-30.9,3.2
								c-4.4,3-8.4,7.9-8.7,13.3c-0.2,2.8,0.9,6,2.8,8.1c1.2,1.3,4.2,2.4,5.9,1.4c0.6,3.4-6.9,4.6-7,4.3c0.5,5.6,7.6,9,12.4,10
								c8.3,1.7,14.6-1.8,22.3-4.2c5.2-1.6,12.9-1.4,17.4-4.3C314.3,47.7,315.2,46.3,315.6,44.7z"/>
						</defs>
						<clipPath id="SVGID_38_">
							<use xlink:href="#SVGID_37_"  style="overflow:visible;"/>
						</clipPath>
						<g id="XMLID_132_" class="st21">
							<g id="XMLID_135_">
								<path id="XMLID_136_" class="st22" d="M270.2,38.7c3,0,5.4-2.5,5.4-5.4c0-3-2.5-5.4-5.4-5.4c-3,0-5.4,2.5-5.4,5.4
									C264.8,36.2,267.3,38.7,270.2,38.7L270.2,38.7z"/>
							</g>
							<g id="XMLID_133_">
								<path id="XMLID_134_" class="st23" d="M269,37.3c4.4,0,4.4-6.8,0-6.8C264.5,30.5,264.5,37.3,269,37.3L269,37.3z"/>
							</g>
						</g>
					</g>
				</g>
			</g>
		</g>
	</g>
</g>
<g id="Camada_4">
	<g>
		<g id="XMLID_32_">
			<path id="XMLID_142_" class="st24" d="M61.3,12.4V12c0-0.3,0-0.5,0.6-0.7c2-0.2,11.5-1,13.5-1.2h1c0.6,0,2.6,0,2.6,1.2v15.2
				c0,0-0.2,0.4-0.3,0.5c-0.3,0.4-1.1,1.3-1.1,1.3h-4.1c0,4.7,3.2,10.5,4.9,14.5v0.8c0,0.9,0,1.1-0.8,1.4H76c-0.6,0-2.1,0.1-2.7-0.3
				c-0.3-0.2-1.3-1.2-1.4-1.4s-0.5-2.3-0.6-2.5c-0.7-2.8-1.7-5.7-2.8-8.5c-0.2-0.5-0.8-1.7-0.9-1.7h-0.3c0,0-0.2,1.4-0.3,2
				c-0.1,0.9-0.6,8.2-0.6,9.1c-0.1,2.2-0.2,3.4-2.5,3.4c-0.8,0-1.8-0.1-1.9-1.1c-0.2-0.9-0.6-3.7-0.6-4V15.5
				C61.6,15.1,61.4,12.9,61.3,12.4z M67,22c0,0.8,1.7,0.9,2.1,0.9c0.6,0,4.4-0.2,4.4-1.2v-4.2c0-0.2-0.3-0.7-0.5-0.9h-3.1
				c-0.6,0-2.2,0.3-2.2,0.3L67,17.5V22z"/>
			<path id="XMLID_234_" class="st24" d="M81.2,44.2c0-1.5,0-8.7,0-10.2c0-2.7,0-9.8,0-10.2c0-1.3,0.2-7.6,0.3-9.1
				c0.1-1.3,0.3-3.3,1.8-3.8c2.7-0.3,4.5-0.3,7.2-0.3s5.6-0.6,5.6,2.8v0.1c0,0.9,0,3.7-1.2,3.8L88.2,18c-0.6,0-0.6,1.4-0.6,1.7
				c0,1.4,0.1,2.3,0.3,3.8c1,1.5,5.4,0.9,6.7,0.9c0.4,0,0.9,0.4,0.9,0.9V30l-0.6,0.6c-0.7,0-4.2,0.3-5,0.3c-1.1,0.1-2.2,0.4-2.6,1.4
				c0,0.5,0,2.6,0,3.1c0,1.4-0.1,3.4,0.3,4.9c1.9,1.1,5.4,1.2,7.3,1.4c0.9,0.5,0.6,1.8,0.6,2.6c0,0.3,0,1.1,0,1.2L94.9,46
				c0,0-2.7,0.3-3.8,0.3h-0.9c-1.2,0-6.5-0.2-7.6-0.3C81.9,45.7,81.3,45,81.2,44.2z"/>
			<path id="XMLID_415_" class="st24" d="M99.5,11.8c0.9-0.9,3.1-0.7,4.3-0.9c0.5-0.1,2.2-0.3,2.3-0.3c0.3,0,3.4,0,4.4,0
				c0.8,0,2.8,0,2.8,0l0.6,0.6c0,0,0.2,2.5,0.3,3.5V15c0,0.6-0.5,1.3-1.1,1.4L105,17c-1.3,0.1-0.9,3.2-0.9,4c0,0.6-0.2,2,0.9,2.1
				l8.4,0.9c0.6,0,1.5,1.1,1.5,1.7V26l-0.3,3.5c-0.2,0.7-0.9,0.6-1.4,0.6c-2.2,0-4.4-0.6-6.7-0.6s-2.3,0.7-2.4,2.8v0.2l-0.3,4.9V38
				c0,1.4,0,2.8,0.1,7.8h-4.4l-0.6-0.6c0-0.1,0-4.1,0-5.6C98.8,30.3,98.7,20.9,99.5,11.8z"/>
			<path id="XMLID_429_" class="st24" d="M117.7,12.7c0-0.7,1-1.5,1.7-1.5c2.1,0,3.8,0.7,3.8,3v0.2c0,1.6-0.8,14.5-0.9,16
				c0,0.2,0,2.2,0,2.9s0,2.8,0,3c0,0.8,0.3,2.9,0.3,2.9l0.6,0.6h4.1l0.6-0.6l1.5-25.7c0.1-1.5,1.5-1.8,2.6-1.8c0.2,0,1,0,1.2,0
				c0.3,0.2,0.5,0.5,0.6,0.9c0,1.6,0,9.3,0,11v2.3c0,6.9,0,12.3-0.6,19.5c-0.2,0.3-0.9,0.6-1.2,0.6h-13.7c-0.4,0-0.9-0.5-0.9-0.9
				V16.8L117.7,12.7z M121.4,9.9c0,0-0.1-0.6-1.2-2.7L120.1,7l-0.2-0.6c0-0.3,0.1-0.5,0.3-0.6L130,2l1.3,3.6
				c0.1,0.2-0.3,0.6-0.3,0.6C125.9,8.4,126.8,7.8,121.4,9.9z"/>
			<path id="XMLID_536_" class="st24" d="M136.4,41.2c0-2.3,0.4-4.9,0.4-25.6c0-3,0.2-4.7,3.5-4.7h12.3c0.4,0,0.8,0.5,0.9,0.9
				l0.3,5.8v3.2c-0.3,0.7-0.4,0.9-1.2,0.9c-2,0-3.8-1.4-3.8-3.3c0-0.5-0.1-1.3,0.6-1.4l-0.3-0.3c0,0-3.1-0.4-4.4-0.6
				c0,0-0.5,0-0.6,0c-1.9,0-1.6,5-2,6.5c-0.1,1.5-0.5,8.5-0.6,9.9c0,0.2,0,2.2,0,2.9c0,0.4,0,2.5,0,2.9c0.1,0.7,0.8,0.9,1.4,0.9
				c1,0,3.6,0.3,3.8-1.2c0-0.8,0.3-4.7,0.3-5.6v-1c0-2.2-3.2-1.3-3.2-3.8c0-2.6,3.2-2.2,5.2-2.2h0.4c0.1,0,1.3,0,1.6,0s1,0,1,0
				l0.6,0.6c0,0.1,0,1.4,0,1.9c0,0.6,0,2.5,0,2.8c-0.1,2.1-0.7,11.6-0.9,13.7c-0.1,0.2-0.8,0.9-1.1,0.9h-13.5l-0.6-0.6
				c0-0.1,0-2.2,0-3L136.4,41.2L136.4,41.2z"/>
			<path id="XMLID_543_" class="st24" d="M155.9,28.5c0-0.4,0-6.2,0-8.2c0-1.3,0-7,0-8.2c0.2-0.5,0.5-0.9,0.9-1.2h1.8
				c1.3,0,2.7-0.2,3.2,1.2v1.6c0,10.4-0.6,21.2-0.9,31.7c0,0-0.4,0.9-0.6,0.9h-3.2c-0.5,0-0.8-0.5-0.9-0.9L155.9,28.5z"/>
			<path id="XMLID_545_" class="st24" d="M164.9,12.7l0.6-0.6c0-0.1,2.8-0.3,3.9-0.3h11c1.2,0.9,0.8,2,0.8,3.5v0.2
				c0,0.5,0.3,4.1,0.3,4.5c0,1.3,0.6,9.7-0.3,23.2c0,0.2-0.3,2.5-1.1,2.5h-14.9l-0.6-0.6c0,0-0.2-13.8-0.3-19.7v-0.6
				C164.5,21.2,164.9,12.7,164.9,12.7z M171.2,39.8c0,0,0.3,0,0.4,0c0.6-0.4,3.7,0.3,4.3-0.1c1.1-0.8,0-9.1,0-22.3
				c0-1.1-4.3-0.8-4.9-0.8l-0.3,0.3c-0.6,3.3-0.8,6.6-0.9,10c1.1-0.3,3-0.5,3.6,0.2c0.4,0.5,0,4.4-0.4,4.8c-0.2,0.2-0.7,0.1-1,0.1
				c-0.6,0-1.6,0.3-2.2,0.1v0.6c0,2.1-0.1,4.5,0.3,6.6C170.4,39.7,170.8,39.8,171.2,39.8z"/>
			<path id="XMLID_549_" class="st24" d="M214.1,14c0,9.6-0.6,19.2-0.6,28.7v2.4c0,0.5-0.4,0.8-0.9,0.9c-1.1,0.1-6.4,0.3-7.5,0.3
				h-5.9c-0.2,0-1.2-0.6-1.2-0.9V13.3c0-0.4,0.4-2,1.2-2h13.2c0.7,0,1.4,0.6,1.8,1.2C214.1,12.6,214.1,13.8,214.1,14z M203.8,40.2
				h0.1c1.2,0,4-3.3,4.2-4.7c0.1-0.3,0.3-3.2,0.3-3.5c0.3-2.2,0.6-4.1,0.6-6.3c0-0.8,0.3-3.6-0.6-4.5l-3.2-3.2h-0.3
				c-0.3,0-0.7-0.1-0.8,0.3c-0.1,1.7-0.6,9.6-0.6,11.3c0,0.3,0,3.8,0,5.1c0,0.8,0,4.4,0,5.1C203.5,39.9,203.7,40.1,203.8,40.2z"/>
			<path id="XMLID_552_" class="st24" d="M217.3,12.7l0.6-0.6c0-0.1,2.8-0.3,3.9-0.3h11c1.2,0.9,0.8,2,0.8,3.5v0.2
				c0,0.5,0.3,4.1,0.3,4.5c0,1.3,0.6,9.7-0.3,23.2c0,0.2-0.3,2.5-1.1,2.5h-14.9l-0.6-0.6c0,0-0.2-13.8-0.3-19.7v-0.6
				C216.9,21.2,217.3,12.7,217.3,12.7z M223.6,39.8c0,0,0.3,0,0.4,0c0.6-0.4,3.7,0.3,4.3-0.1c1.1-0.8,0-9.1,0-22.3
				c0-1.1-4.3-0.8-4.9-0.8l-0.3,0.3c-0.6,3.3-0.8,6.6-0.9,10c1.1-0.3,3-0.5,3.6,0.2c0.4,0.5,0,4.4-0.4,4.8c-0.2,0.2-0.7,0.1-1,0.1
				c-0.6,0-1.6,0.3-2.2,0.1v0.6c0,2.1-0.1,4.5,0.3,6.6C222.8,39.7,223.2,39.8,223.6,39.8z"/>
			<path id="XMLID_560_" class="st24" d="M237.2,39.9l0.9-0.8c2.2,0,5.5,0.1,7.9-0.3c0.6-0.3,0.6-0.5,0.6-1c0-2.2-1.4-4.1-1.5-6.3
				c-1-2-5.9-11.4-7-13.4c-0.1-0.3-1.4-2.1-1.5-2.4c0-0.1-0.1-1.3-0.1-1.7c0-0.3,0-1.5,0.1-1.8s0.3-0.7,0.6-0.9
				c4.8,0.1,9.5-0.3,14.4-0.3c0.5,0,1.4,0,1.4,0.9v4.7l-0.9,0.9h-5.8c-1.4,0-1.5,1.1-1.5,2.1c0,1.1,0.4,2.1,0.9,3.2l2.9,5.9
				c0.2,0.2,1.4,2.1,1.8,2.6c0.2,0.2,1.9,2.3,2,2.6c0.1,0.2,0.5,1.6,0.6,1.8l0.6,1.4c0,0.4,0,2.1,0,2.5c0,1.6,0.6,4.8-1.5,5.4
				l-8.5,0.3H238c-1.2-0.7-0.9-2.7-0.9-3.8v-1.6H237.2z"/>
		</g>
		<g id="XMLID_20_">
			<g id="XMLID_23_">
				<path id="XMLID_562_" class="st24" d="M61.6,53.9v-0.8c0-0.7,0-0.9,1.1-1.4c3.9-0.4,22.4-2,26.3-2.3h2c1.2,0,5.1,0.1,5.1,2.3
					v29.6c0,0-0.3,0.8-0.5,1L93.4,85H73.6v4.4c-0.1,0-0.4,2.8-0.5,3.9C73,95.1,72,109.1,72,110.9c-0.3,4.4-0.3,6.5-4.9,6.5
					c-1.6,0-3.4-0.3-3.8-2.2c-0.3-1.8-1.1-7.1-1.1-7.7V59.9C62,59,61.6,54.8,61.6,53.9z M72.5,72.5c0,1.6,3.3,1.7,4,1.7
					c1.2,0,8.6-0.4,8.6-2.3v-8.2c0-0.4-0.7-1.3-1-1.7H78c-1.2,0.1-4.3,0.5-4.4,0.6l-1.1,1.1V72.5z"/>
				<path id="XMLID_565_" class="st24" d="M101.2,115.7c0-2.9-0.1-16.8-0.1-19.9c0-5.2,0.1-19.1,0.1-19.9c0-2.5,0.4-14.8,0.6-17.6
					c0.2-2.6,0.5-6.4,3.4-7.4c5.3-0.7,8.8-0.7,14.1-0.7s10.9-1.1,10.9,5.4V56c0,1.8,0,7.2-2.3,7.5l-13.1,1.2
					c-1.2,0.1-1.2,2.7-1.2,3.3c0,2.7,0.3,4.4,0.7,7.5c1.9,2.9,10.5,1.8,13,1.8c0.8,0.1,1.8,0.8,1.8,1.7v9.1l-1.2,1.1
					c-1.4,0.1-8.2,0.5-9.6,0.7c-2.1,0.2-4.4,0.8-5.1,2.8c0,0.9-0.1,5.1-0.1,6c0,2.8-0.3,6.5,0.7,9.5c3.8,2.2,10.5,2.3,14.2,2.8
					c1.7,1,1.3,3.5,1.3,5.1c0,0.6-0.1,2.2-0.1,2.3l-1.2,1.1c0,0.1-5.2,0.5-7.4,0.6h-1.7c-2.3,0-12.6-0.4-14.8-0.6
					C102.5,118.6,101.4,117.3,101.2,115.7z"/>
				<path id="XMLID_568_" class="st24" d="M135.4,85.1c0-0.8-0.1-12-0.1-15.9c0-2.4,0.1-13.6,0.1-15.8c0.3-1,1-1.8,1.7-2.3h3.4
					c2.5,0,5.3-0.4,6.3,2.3v3.1c0,20.2-1.1,41.2-1.7,61.5c0,0-0.8,1.7-1.2,1.7h-6.2c-0.9,0-1.6-1-1.8-1.7L135.4,85.1z"/>
				<path id="XMLID_570_" class="st24" d="M161.6,85.3l0.9-2.8c-2.9-9.6-6.3-19.4-9.8-29.1c0.1-0.6,0.2-1.2,0.7-1.6
					c0.3,0,2.1-0.1,2.5-0.1l5.1,0.5l3,7.3c0.2,0.3,0.3,0.6,0.3,0.9l0.6,1.3c0.2,0.7,1.3,3.4,2.3,6l4.6-13.5c0.6-1.1,1.6-1.8,2.5-2.3
					h3.7c2.7,0,6-0.4,6.1,2.3l-1,2.9c-3,9.2-6.3,18.7-9.7,28.1c1.3,3.4,4.1,11.7,4.3,12.4c1,2.8,5.2,16.2,6,19c0,0-0.2,1.7-0.7,1.7
					h-9.3c-2.1-6.7-3.2-6.1-5.9-16.8c-0.1-0.3-0.2-0.4-0.2-0.7c-2.1,5.4-4,11.1-6,16.5c0,0-1.3,1.6-1.8,1.6h-6.7c-1,0-1.3-1-1.3-1.6
					C153.3,112.7,160.2,90.2,161.6,85.3z"/>
				<path id="XMLID_572_" class="st24" d="M188,115.7c0-2.9-0.1-16.8-0.1-19.9c0-5.2,0.1-19.1,0.1-19.9c0-2.5,0.4-14.8,0.6-17.6
					c0.2-2.6,0.5-6.4,3.4-7.4c5.3-0.7,8.8-0.7,14.1-0.7s10.9-1.1,10.9,5.4V56c0,1.8,0,7.2-2.3,7.5l-13.1,1.2
					c-1.2,0.1-1.2,2.7-1.2,3.3c0,2.7,0.3,4.4,0.7,7.5c1.9,2.9,10.5,1.8,13,1.8c0.8,0.1,1.8,0.8,1.8,1.7v9.1l-1.2,1.1
					c-1.4,0.1-8.2,0.5-9.6,0.7c-2.1,0.2-4.4,0.8-5.1,2.8c0,0.9-0.1,5.1-0.1,6c0,2.8-0.3,6.5,0.7,9.5c3.8,2.2,10.5,2.3,14.2,2.8
					c1.7,1,1.3,3.5,1.3,5.1c0,0.6-0.1,2.2-0.1,2.3l-1.2,1.1c0,0.1-5.2,0.5-7.4,0.6h-1.7c-2.3,0-12.6-0.4-14.8-0.6
					C189.2,118.6,188.1,117.3,188,115.7z"/>
				<path id="XMLID_575_" class="st24" d="M223.3,107.2l1.8-1.6c4.3,0.1,10.6,0.2,15.3-0.6c1.2-0.5,1.2-1,1.2-2
					c0-4.2-2.7-8-2.9-12.2c-2-3.9-11.5-22.2-13.7-26.1c-0.3-0.5-2.8-4-2.9-4.6c-0.1-0.2-0.2-2.5-0.2-3.4c0-0.5,0.1-2.9,0.2-3.4
					c0.3-0.6,0.6-1.3,1.1-1.8c9.3,0.3,18.5-0.6,28-0.6c1,0,2.8,0,2.8,1.8v9.1l-1.8,1.7H241c-2.7,0-2.9,2.2-2.9,4
					c0,2.2,0.8,4.1,1.7,6.2l5.7,11.4c0.3,0.4,2.7,4.1,3.4,5.1c0.3,0.4,3.6,4.4,3.9,5c0.3,0.3,1,3.1,1.2,3.4l1.1,2.8
					c0,0.8,0.1,4.1,0.1,4.9c0,3,1.1,9.3-2.9,10.5l-16.4,0.6h-10.8c-2.3-1.4-1.8-5.2-1.8-7.3V107.2z"/>
			</g>
		</g>
	</g>
	<g>
		<g>
			<g>
				<path class="st25" d="M43.6,116.9c-0.7,2.2-6.7,5.7-8.9,5.2c-3-0.7,0.5-5.7,3.2-5.5L43.6,116.9z"/>
				<g>
					<path class="st25" d="M40.9,115.3c-0.2,0.4,0.1,0.1,0.2-0.1c-0.1,0.1-0.8,0.4-0.5,0.3c-0.2,0.1-1.3,0.5-1.8,0.7
						c-0.7,0.3-1.3,0.5-2,0.7c-0.3,0.1-1.5,0.2-0.2,0.1c-0.2,0-0.6,0-0.8,0c-0.3,0-0.2,0,0.3,0c0.4,0,0.8,0.1,1.1,0.4
						c0.6,0.8,1.2,1.6,1.9,2.4c0.1,0.5,0.2,0.9,0.1,1.4c0,0.4-0.7,1.6-0.2,0.9c-0.9,1.2-0.2,0.3,0.1,0c0.6-0.7-0.6,0.3-0.1,0.1
						c0.3-0.1,0.5-0.3,0.8-0.5c1.4-0.8,2.3-1.8,3-3.3c-1,0.6-2.1,1.2-3.1,1.8c1.4-0.1,2.8-0.2,4.2-0.2c1.6-0.1,2.9-1.1,3.1-2.7
						c0.2-1.4-0.7-3.2-2.3-3.5c-1.4-0.2-2.7-0.4-4.1-0.6c0.8,0.8,1.7,1.7,2.5,2.5c-1.9-5.9-8.7-5.6-12.3-1.3c-2.8,3.4-4,9.4,0.7,12
						c5.9,3.2,13.7-2.9,15.4-8.7C47.6,114.3,42.6,112.1,40.9,115.3z"/>
				</g>
			</g>
			<path class="st25" d="M32.6,90.9c0.1-2.3,2.1-3.9,4.3-4.3c4.3-0.8,8.6,2.3,10.6,5.9c0.1,0.2,0.1,0.5,0,0.7c0.6,0.9,0.9,2.2-0.1,3
				c-1.4,1.3-3.1,1.4-5,1.4c-1,0-1.9-0.1-2.9,0.2c-1.2,0.4-2.1,0.7-3.4,0.6c-0.9-0.1-1.8-0.6-2-1.5C33.7,94.8,32.5,93,32.6,90.9z"/>
			<path class="st25" d="M26.7,98c0.1-1.3,1.1-2.1,2.3-2.4c2.4-0.5,4.8,1.3,5.8,3.3c0.1,0.1,0.1,0.3,0,0.4c0.4,0.5,0.5,1.2-0.1,1.7
				c-0.8,0.7-1.7,0.8-2.7,0.8c-0.6,0-1-0.1-1.6,0.1c-0.6,0.2-1.2,0.4-1.9,0.3c-0.5-0.1-1-0.3-1.1-0.9C27.3,100.2,26.6,99.2,26.7,98z
				"/>
			<g>
				<defs>
					<path id="SVGID_39_" d="M3.8,106.3c-1.8,3.5,1,6.7,4.6,6.4c4-0.3,8.8-2.4,12.8-1.5c3.7,0.9,6.7,4.4,10.1,5.8
						c4,1.7,8.6,2.1,12.9,1.9c7.9-0.4,17.7-3.2,22.2-10.3c0.7-1.1-0.2-2.4-1.3-2.6c-2.3-4.4-4.9-7.3-9.1-10.1
						c-6.3-4-16.4-7-22.1-0.6c-1.9,2.2-3.1,4.4-5.8,5.6c-4.4,2-9.4,1.2-13.6-1C12,98.9,9.2,97,6.3,97.4c-3.5,0.4-4.2,4.1-1.7,6.4
						c0.3,0.3,0.6,0.5,0.9,0.8C4.7,105,4.2,105.7,3.8,106.3z"/>
				</defs>
				<clipPath id="SVGID_40_">
					<use xlink:href="#SVGID_39_"  style="overflow:visible;"/>
				</clipPath>
				<path class="st26" d="M3.8,106.3c-1.8,3.5,1,6.7,4.6,6.4c4-0.3,8.8-2.4,12.8-1.5c3.7,0.9,6.7,4.4,10.1,5.8
					c4,1.7,8.6,2.1,12.9,1.9c7.9-0.4,17.7-3.2,22.2-10.3c0.7-1.1-0.2-2.4-1.3-2.6c-2.3-4.4-4.9-7.3-9.1-10.1c-6.3-4-16.4-7-22.1-0.6
					c-1.9,2.2-3.1,4.4-5.8,5.6c-4.4,2-9.4,1.2-13.6-1C12,98.9,9.2,97,6.3,97.4c-3.5,0.4-4.2,4.1-1.7,6.4c0.3,0.3,0.6,0.5,0.9,0.8
					C4.7,105,4.2,105.7,3.8,106.3z"/>
				<g class="st27">
					<g>
						<path class="st28" d="M54.1,108.9c-2.3,0-4.2-1.9-4.2-4.2c0-2.3,1.9-4.2,4.2-4.2c2.3,0,4.2,1.9,4.2,4.2
							C58.3,107,56.4,108.9,54.1,108.9L54.1,108.9z"/>
					</g>
					<g>
						<path class="st29" d="M55.1,107.9c-3.4,0-3.4-5.3,0-5.3C58.6,102.6,58.6,107.9,55.1,107.9L55.1,107.9z"/>
					</g>
				</g>
				<g class="st27">
					<g>
						<path class="st29" d="M64.9,103.5c-0.2,5.8-7.1,5.4-11,6.8c-0.4,0.1-0.4,0.7,0,0.8c5,1.6,12.2-1.9,12-7.6
							C65.9,102.9,65,102.9,64.9,103.5L64.9,103.5z"/>
					</g>
				</g>
				<g class="st27">
					<g>
						<path class="st30" d="M50.4,88.5c-2.4-3.2-5.6,0.5-6.8,3.1c-1.9,3.9-2.1,8.8,0.9,12.1c0.1-1.2,0.3-2.3,0.4-3.5
							c-4.7,3.1-5.7,11.1-0.7,14.3c0-1.5,0-3,0-4.5c-3.3,1.8-4,6.2-3.5,9.6c0.6,4.3,4.3,6.7,8.5,6.7c1.5,0,2.8-1.3,2.8-2.8
							c0-0.5-0.1-0.9-0.4-1.4c-0.5-0.8-1.4-1.4-2.4-1.4c-2.7,0.1-5.2-4.5-2.3-6.3c1.5-1,1.8-3.6,0-4.5c-2.1-1.1-1.4-4.8,0.3-6
							c1.1-0.8,1.5-2.4,0.4-3.5c-2.7-2.7-0.6-9.8,2.6-11.5C50.4,88.9,50.5,88.6,50.4,88.5L50.4,88.5z"/>
					</g>
				</g>
				<g class="st27">
					<g>
						<path class="st30" d="M43.5,88.5c-2.4-3.2-5.6,0.5-6.8,3.1c-1.9,3.9-2.1,8.8,0.9,12.1c0.1-1.2,0.3-2.3,0.4-3.5
							c-4.7,3.1-5.7,11.1-0.7,14.3c0-1.5,0-3,0-4.5c-3.3,1.8-4,6.2-3.5,9.6c0.6,4.3,4.3,6.7,8.5,6.7c1.5,0,2.8-1.3,2.8-2.8
							c0-0.5-0.1-0.9-0.4-1.4c-0.5-0.8-1.4-1.4-2.4-1.4c-2.7,0.1-5.2-4.5-2.3-6.3c1.5-1,1.8-3.6,0-4.5c-2.1-1.1-1.4-4.8,0.3-6
							c1.1-0.8,1.5-2.4,0.4-3.5c-2.7-2.7-0.6-9.8,2.6-11.5C43.5,88.9,43.6,88.6,43.5,88.5L43.5,88.5z"/>
					</g>
				</g>
				<g class="st27">
					<g>
						<path class="st30" d="M35.8,92.7c-2.2-3-5.2,0.1-6.5,2.4c-2,3.6-2.3,8.3,0.7,11.3c0.1-1.1,0.3-2.2,0.4-3.3
							c-4.6,2.7-5.6,10.1-0.7,13.1c0-1.4,0-2.8,0-4.3c-3.1,1.6-4,5.7-3.4,9c0.7,4,4.5,6,8.3,6c1.1,0,2.4-0.8,2.6-2
							c0.2-1.3,0-2.2-1.2-3c-0.9-0.6-2-0.1-3-0.5c-1.8-0.7-2.8-4.1-0.8-5.3c1.5-0.9,1.7-3.4,0-4.3c-2.2-1-1.4-4.1,0.3-5.2
							c1.1-0.7,1.4-2.3,0.4-3.3c-3-2.7-0.2-8.5,2.7-10.3C35.8,93.1,35.9,92.8,35.8,92.7L35.8,92.7z"/>
					</g>
				</g>
			</g>
			<g>
				<g>
					<path class="st30" d="M15.3,103.3c-1.1-1-2.4-1.8-3.7-2.5c-1.1-0.6-2.5-1.5-3.8-1.1c-0.4,0.1-0.7,0.5-0.5,1
						c0.4,1.2,1.6,1.7,2.6,2.3c1.3,0.6,2.5,1.3,3.6,2.2C14.7,106.2,16.6,104.4,15.3,103.3L15.3,103.3z"/>
				</g>
			</g>
			<g>
				<g>
					<path class="st30" d="M13.9,105.9c-0.9-0.4-1.9-0.4-2.8-0.7c-1-0.3-1.9-0.6-2.9-0.5c-0.1,0-0.1,0.2,0,0.2
						c1,0.2,1.9,0.5,2.8,0.7c1,0.3,1.9,0.2,2.9,0.5C14,106.1,14,105.9,13.9,105.9L13.9,105.9z"/>
				</g>
			</g>
			<g>
				<g>
					<path class="st30" d="M14.1,107.4c-1.1-0.6-2.1-0.7-3.4-0.5c-1.3,0.2-2.8,0.4-4,0.9c-1.4,0.5-1.8,3,0,3.3
						c2.4,0.5,5.4-0.8,7.4-2.1C14.7,108.6,14.7,107.7,14.1,107.4L14.1,107.4z"/>
				</g>
			</g>
		</g>
		<g>
			<g>
				<g>
					<path class="st31" d="M65.9,102.1c5.9,0,5.9-9.1,0-9.1C60.1,93,60,102.1,65.9,102.1L65.9,102.1z"/>
				</g>
			</g>
			<g>
				<g>
					<path class="st31" d="M60.8,93.6c4.3,0,4.3-6.7,0-6.7C56.5,87,56.5,93.6,60.8,93.6L60.8,93.6z"/>
				</g>
			</g>
			<g>
				<g>
					<path class="st31" d="M67,89.7c6.1,0,6.1-9.5,0-9.5C60.9,80.2,60.9,89.7,67,89.7L67,89.7z"/>
				</g>
			</g>
			<g>
				<g>
					<path class="st31" d="M61.6,83c0.9,0,1.9-0.8,1.8-1.8c0-1-0.8-1.8-1.8-1.8c-0.9,0-1.9,0.8-1.8,1.8C59.9,82.1,60.6,83,61.6,83
						L61.6,83z"/>
				</g>
			</g>
		</g>
	</g>
</g>
</svg>
