<?xml version="1.0" encoding="utf-8"?>
<!-- Generator: Adobe Illustrator 19.0.0, SVG Export Plug-In . SVG Version: 6.00 Build 0)  -->
<svg version="1.1" id="Camada_1" xmlns="http://www.w3.org/2000/svg" xmlns:xlink="http://www.w3.org/1999/xlink" x="0px" y="0px"
	 viewBox="-15 32 46 7" style="enable-background:new -15 32 46 7;" xml:space="preserve">
<style type="text/css">
	.st0{clip-path:url(#SVGID_2_);}
	.st1{fill:#2ED9DE;}
</style>
<g>
	<defs>
		<rect id="SVGID_1_" x="-15" y="32.3" width="46" height="6"/>
	</defs>
	<clipPath id="SVGID_2_">
		<use xlink:href="#SVGID_1_"  style="overflow:visible;"/>
	</clipPath>
	<g class="st0">
		<path class="st1" d="M-1.8,36.5l1.9-1.2l2,1.3c3.5,2.3,8.1,2.3,11.7,0l2-1.3l2,1.3c1.8,1.1,3.8,1.7,5.8,1.7c2,0,4-0.6,5.8-1.7
			l1.4-0.9l0.1-0.1c0-0.6,0-1.2,0-1.7c0-0.3,0-0.5,0-0.8v-0.6l-0.3,0.2L28,34.5c-2.7,1.7-6.1,1.7-8.8,0l-3.4-2.2l-3.4,2.2
			c-2.7,1.7-6.1,1.7-8.8,0l-3.4-2.2l-3.4,2.2c-2.7,1.7-6.1,1.7-8.8,0l-2.7-1.7l-0.3-0.2c0,0.3,0,1.1,0,1.4c0,0.6,0,1.7,0,1.7
			l0.3,0.2l1.3,0.8C-9.9,38.8-5.3,38.8-1.8,36.5z"/>
	</g>
</g>
</svg>
